<svg width="557" height="430" viewBox="0 0 557 430" fill="none" xmlns="http://www.w3.org/2000/svg">
<g filter="url(#filter0_f_5_267)">
<rect x="478.096" y="292.7" width="369.285" height="216.031" transform="rotate(171.009 478.096 292.7)" fill="url(#paint0_linear_5_267)"/>
</g>
<rect x="61" y="114.073" width="406.497" height="257.149" rx="16.8438" transform="rotate(-8.78356 61 114.073)" fill="#18181B"/>
<mask id="mask0_5_267" style="mask-type:alpha" maskUnits="userSpaceOnUse" x="63" y="54" width="437" height="312">
<rect x="61" y="114.073" width="406.497" height="257.149" rx="16.8438" transform="rotate(-8.78356 61 114.073)" fill="white"/>
</mask>
<g mask="url(#mask0_5_267)">
<g opacity="0.18">
<line x1="55.8205" y1="107.618" x2="413.848" y2="321.588" stroke="white" stroke-width="1.12292"/>
<line x1="50.6153" y1="110.695" x2="408.643" y2="324.665" stroke="white" stroke-width="1.12292"/>
<line x1="45.41" y1="113.772" x2="403.437" y2="327.742" stroke="white" stroke-width="1.12292"/>
<line x1="40.2029" y1="116.849" x2="398.23" y2="330.819" stroke="white" stroke-width="1.12292"/>
<line x1="34.9977" y1="119.926" x2="393.025" y2="333.896" stroke="white" stroke-width="1.12292"/>
<line x1="29.7916" y1="123.003" x2="387.819" y2="336.973" stroke="white" stroke-width="1.12292"/>
<line x1="24.5864" y1="126.08" x2="382.614" y2="340.049" stroke="white" stroke-width="1.12292"/>
<line x1="19.3812" y1="129.156" x2="377.409" y2="343.126" stroke="white" stroke-width="1.12292"/>
<line x1="14.174" y1="132.233" x2="372.201" y2="346.203" stroke="white" stroke-width="1.12292"/>
<line x1="8.96882" y1="135.31" x2="366.996" y2="349.28" stroke="white" stroke-width="1.12292"/>
<line x1="3.76264" y1="138.387" x2="361.79" y2="352.357" stroke="white" stroke-width="1.12292"/>
<line x1="-1.44256" y1="141.464" x2="356.585" y2="355.434" stroke="white" stroke-width="1.12292"/>
<line x1="-6.64971" y1="144.541" x2="351.378" y2="358.51" stroke="white" stroke-width="1.12292"/>
<line x1="-11.8549" y1="147.618" x2="346.173" y2="361.587" stroke="white" stroke-width="1.12292"/>
<line x1="-17.0601" y1="150.695" x2="340.967" y2="364.664" stroke="white" stroke-width="1.12292"/>
<line x1="-22.2663" y1="153.771" x2="335.761" y2="367.741" stroke="white" stroke-width="1.12292"/>
<line x1="-27.4715" y1="156.848" x2="330.556" y2="370.818" stroke="white" stroke-width="1.12292"/>
<line x1="-32.6786" y1="159.925" x2="325.349" y2="373.895" stroke="white" stroke-width="1.12292"/>
<line x1="-37.8838" y1="163.002" x2="320.144" y2="376.972" stroke="white" stroke-width="1.12292"/>
<line x1="-43.089" y1="166.079" x2="314.938" y2="380.049" stroke="white" stroke-width="1.12292"/>
<line x1="-48.2952" y1="169.156" x2="309.732" y2="383.125" stroke="white" stroke-width="1.12292"/>
<line x1="-53.5013" y1="172.233" x2="304.526" y2="386.202" stroke="white" stroke-width="1.12292"/>
<line x1="-58.7075" y1="175.31" x2="299.32" y2="389.279" stroke="white" stroke-width="1.12292"/>
<line x1="-63.9127" y1="178.386" x2="294.115" y2="392.356" stroke="white" stroke-width="1.12292"/>
<line x1="-69.118" y1="181.463" x2="288.909" y2="395.433" stroke="white" stroke-width="1.12292"/>
<line x1="-74.324" y1="184.54" x2="283.703" y2="398.51" stroke="white" stroke-width="1.12292"/>
<line x1="-79.5302" y1="187.617" x2="278.497" y2="401.587" stroke="white" stroke-width="1.12292"/>
<line x1="-84.7364" y1="190.694" x2="273.291" y2="404.664" stroke="white" stroke-width="1.12292"/>
<line x1="-89.9416" y1="193.771" x2="268.086" y2="407.74" stroke="white" stroke-width="1.12292"/>
<line x1="-95.1468" y1="196.847" x2="262.881" y2="410.817" stroke="white" stroke-width="1.12292"/>
<line x1="-100.354" y1="199.924" x2="257.674" y2="413.894" stroke="white" stroke-width="1.12292"/>
<line x1="62.308" y1="105.48" x2="420.336" y2="319.45" stroke="white" stroke-width="1.12292"/>
<line x1="68.7947" y1="103.341" x2="426.822" y2="317.311" stroke="white" stroke-width="1.12292"/>
<line x1="75.2824" y1="101.203" x2="433.31" y2="315.173" stroke="white" stroke-width="1.12292"/>
<line x1="81.7681" y1="99.0642" x2="439.796" y2="313.034" stroke="white" stroke-width="1.12292"/>
<line x1="88.2557" y1="96.9255" x2="446.283" y2="310.895" stroke="white" stroke-width="1.12292"/>
<line x1="94.7434" y1="94.7871" x2="452.771" y2="308.757" stroke="white" stroke-width="1.12292"/>
<line x1="101.23" y1="92.6484" x2="459.258" y2="306.618" stroke="white" stroke-width="1.12292"/>
<line x1="107.718" y1="90.5097" x2="465.745" y2="304.479" stroke="white" stroke-width="1.12292"/>
<line x1="114.204" y1="88.3713" x2="472.232" y2="302.341" stroke="white" stroke-width="1.12292"/>
<line x1="120.691" y1="86.2326" x2="478.718" y2="300.202" stroke="white" stroke-width="1.12292"/>
<line x1="127.178" y1="84.094" x2="485.205" y2="298.064" stroke="white" stroke-width="1.12292"/>
<line x1="133.665" y1="81.9556" x2="491.693" y2="295.925" stroke="white" stroke-width="1.12292"/>
<line x1="140.153" y1="79.8169" x2="498.18" y2="293.787" stroke="white" stroke-width="1.12292"/>
<line x1="146.639" y1="77.6785" x2="504.667" y2="291.648" stroke="white" stroke-width="1.12292"/>
<line x1="153.126" y1="75.5398" x2="511.154" y2="289.509" stroke="white" stroke-width="1.12292"/>
<line x1="159.613" y1="73.4011" x2="517.64" y2="287.371" stroke="white" stroke-width="1.12292"/>
<line x1="166.101" y1="71.2627" x2="524.128" y2="285.232" stroke="white" stroke-width="1.12292"/>
<line x1="172.587" y1="69.124" x2="530.615" y2="283.094" stroke="white" stroke-width="1.12292"/>
<line x1="179.075" y1="66.9853" x2="537.102" y2="280.955" stroke="white" stroke-width="1.12292"/>
<line x1="185.561" y1="64.8469" x2="543.589" y2="278.817" stroke="white" stroke-width="1.12292"/>
<line x1="192.048" y1="62.7082" x2="550.076" y2="276.678" stroke="white" stroke-width="1.12292"/>
<line x1="198.536" y1="60.5696" x2="556.563" y2="274.539" stroke="white" stroke-width="1.12292"/>
<line x1="205.022" y1="58.4311" x2="563.05" y2="272.401" stroke="white" stroke-width="1.12292"/>
</g>
<rect x="61" y="114.073" width="406.497" height="257.149" rx="16.8438" transform="rotate(-8.78356 61 114.073)" fill="url(#paint1_linear_5_267)"/>
<g filter="url(#filter1_f_5_267)">
<circle cx="79.7143" cy="139.588" r="101.063" transform="rotate(-8.78356 79.7143 139.588)" fill="#B4C9FF"/>
</g>
<g filter="url(#filter2_f_5_267)">
<circle cx="484.655" cy="289.496" r="101.063" transform="rotate(-8.78356 484.655 289.496)" fill="white"/>
</g>
</g>
<path d="M170.636 235.337L165.961 205.081C165.359 201.183 160.94 198.62 156.109 199.367L112.596 206.09C107.764 206.837 104.323 210.615 104.925 214.512L109.6 244.768C110.202 248.666 114.623 251.226 119.455 250.48L162.967 243.756C167.799 243.009 171.239 239.234 170.636 235.337ZM119.367 249.913C114.923 250.6 110.857 248.243 110.303 244.66L105.628 214.403C105.074 210.818 108.239 207.344 112.684 206.657L156.196 199.934C160.639 199.247 164.705 201.604 165.259 205.189L169.934 235.446C170.487 239.029 167.322 242.503 162.88 243.19L119.367 249.913Z" fill="#3F3F46"/>
<path d="M162.882 243.191L119.37 249.914C117.233 250.244 115.079 249.876 113.379 248.891C111.68 247.906 110.574 246.386 110.306 244.663L105.63 214.404C105.077 210.819 108.241 207.345 112.686 206.658L156.198 199.935C160.641 199.248 164.707 201.606 165.261 205.19L169.936 235.449C170.489 239.03 167.324 242.504 162.882 243.191Z" fill="url(#paint2_linear_5_267)"/>
<path d="M108.923 239.609L108.836 239.042L128.873 235.946C130.2 235.74 131.407 235.117 132.229 234.215C133.051 233.313 133.421 232.204 133.257 231.133L131.594 220.37C131.427 219.299 130.74 218.354 129.684 217.742C128.628 217.13 127.289 216.901 125.961 217.105L105.924 220.201L105.837 219.633L125.874 216.537C127.388 216.305 128.915 216.566 130.119 217.265C131.323 217.963 132.106 219.041 132.296 220.261L133.96 231.025C134.147 232.246 133.725 233.51 132.788 234.539C131.851 235.568 130.474 236.278 128.96 236.513L108.923 239.609Z" fill="#383335"/>
<path d="M145.593 229.227L143.93 218.464C143.743 217.242 144.164 215.979 145.102 214.949C146.039 213.92 147.416 213.21 148.93 212.975L166.726 210.225L166.813 210.793L149.018 213.542C147.69 213.749 146.482 214.371 145.66 215.273C144.838 216.176 144.469 217.284 144.633 218.355L146.296 229.119C146.463 230.189 147.15 231.134 148.206 231.747C149.262 232.359 150.601 232.588 151.929 232.384L169.725 229.634L169.812 230.201L152.016 232.951C150.502 233.183 148.975 232.922 147.771 232.224C146.567 231.526 145.783 230.448 145.593 229.227Z" fill="#383335"/>
<path d="M144.403 219.195L144.315 218.628L131.979 220.534L132.067 221.101L144.403 219.195Z" fill="#383335"/>
<path d="M145.911 228.954L145.823 228.387L133.488 230.293L133.575 230.86L145.911 228.954Z" fill="#383335"/>
<path d="M126.605 249.086L124.719 236.878L124.016 236.987L125.903 249.194L126.605 249.086Z" fill="#383335"/>
<path d="M121.72 217.47L119.833 205.262L119.131 205.371L121.017 217.578L121.72 217.47Z" fill="#383335"/>
<path d="M157.738 244.275L155.852 232.068L155.149 232.176L157.036 244.384L157.738 244.275Z" fill="#383335"/>
<path d="M152.854 212.659L150.967 200.452L150.265 200.56L152.151 212.768L152.854 212.659Z" fill="#383335"/>
<path d="M168 220.599L167.913 220.033L145.077 223.561L145.164 224.128L168 220.599Z" fill="#383335"/>
<path d="M132.605 226.068L132.517 225.502L107.339 229.392L107.426 229.959L132.605 226.068Z" fill="#383335"/>
<path d="M416.494 289.474L408.345 290.733L408.601 258.643L416.752 257.384L416.494 289.474ZM396.652 260.489L392.209 283.22L390.573 278.726L390.574 278.728L385.657 265.074C385.657 265.074 384.89 262.307 381.355 262.853L368.51 264.838L368.442 265.391C368.442 265.391 372.496 265.601 377.519 267.652L388.802 293.753L397.294 292.441L405.423 259.134L396.652 260.489ZM465.591 281.888L473.074 280.731L461.713 250.436L455.161 251.448C452.136 251.915 451.76 254.362 451.76 254.362L444.081 285.211L452.577 283.898L453.557 278.986L463.918 277.385L465.591 281.888ZM454.912 272.2L457.384 259.824L461.603 271.166L454.912 272.2ZM441.045 261.337L441.169 254.435C441.169 254.435 437.37 253.625 433.628 254.203C429.584 254.828 420.253 258.08 421.581 266.675C422.83 274.762 434.118 273.121 434.775 277.369C435.431 281.616 425.202 282.418 421.452 280.254L421.326 287.47C421.326 287.47 425.238 288.676 430.798 287.817C436.36 286.957 444.305 282.781 443.094 274.944C441.836 266.805 430.346 267.804 429.799 264.266C429.253 260.726 437.26 259.955 441.045 261.337Z" fill="white"/>
<path d="M390.575 278.727L385.657 265.073C385.657 265.073 384.89 262.306 381.356 262.852L368.511 264.837L368.442 265.39C368.442 265.39 374.814 265.716 381.476 269.594C387.846 273.301 390.575 278.727 390.575 278.727Z" fill="#E6A540"/>
<path d="M120.49 312.085L121.015 312.003C121.618 311.91 122.12 311.712 122.523 311.408C122.934 311.103 123.225 310.72 123.396 310.261C123.574 309.8 123.62 309.289 123.534 308.727L122.564 302.453L120.892 302.711L121.871 309.047C121.929 309.421 121.857 309.74 121.656 310.005C121.462 310.259 121.17 310.417 120.78 310.477L120.255 310.559L120.49 312.085ZM126.795 311.11L132.838 310.177L132.612 308.712L128.229 309.389L127.863 307.021L132.001 306.381L131.775 304.916L127.637 305.556L127.277 303.224L131.659 302.547L131.433 301.082L125.39 302.016L126.795 311.11ZM135.165 309.817L136.825 309.561L135.907 303.616L141.147 308.893L142.453 308.691L141.047 299.597L139.387 299.853L140.289 305.688L135.054 300.523L133.76 300.723L135.165 309.817ZM145.323 308.248L146.983 307.991L146.064 302.046L151.304 307.323L152.611 307.121L151.205 298.027L149.545 298.284L150.447 304.119L145.212 298.953L143.918 299.153L145.323 308.248ZM157.8 306.32L159.473 306.061L158.848 302.021L161.119 296.495L159.227 296.788L157.748 300.478L155.223 297.406L153.331 297.699L157.178 302.291L157.8 306.32ZM169.625 304.492L171.53 304.198L172.264 297.385L175.021 303.659L176.925 303.364L177.962 293.893L176.179 294.168L175.551 301.265L172.737 294.7L171.016 294.966L170.302 302.076L167.561 295.5L165.779 295.775L169.625 304.492ZM181.484 302.66L183.144 302.404L181.739 293.309L180.079 293.566L181.484 302.66ZM186.003 301.962L191.558 301.104L191.331 299.639L187.437 300.24L186.258 292.611L184.598 292.867L186.003 301.962ZM197.011 300.411C197.638 300.314 198.169 300.115 198.606 299.815C199.043 299.514 199.365 299.143 199.572 298.703C199.779 298.263 199.842 297.782 199.761 297.261C199.574 296.049 198.72 295.322 197.2 295.082L195.446 294.816C195.105 294.76 194.834 294.652 194.634 294.491C194.441 294.321 194.325 294.11 194.286 293.858C194.234 293.524 194.319 293.236 194.54 292.994C194.768 292.742 195.093 292.583 195.516 292.518C195.988 292.445 196.423 292.507 196.82 292.704C197.216 292.893 197.538 293.201 197.788 293.629L199.061 292.808C198.711 292.162 198.199 291.678 197.524 291.358C196.858 291.036 196.114 290.938 195.292 291.065C194.698 291.157 194.186 291.353 193.758 291.652C193.336 291.942 193.026 292.307 192.827 292.746C192.636 293.184 192.581 293.663 192.662 294.184C192.753 294.778 193.012 295.267 193.438 295.651C193.863 296.027 194.447 296.274 195.19 296.393L197.023 296.685C197.356 296.741 197.614 296.843 197.795 296.99C197.984 297.136 198.099 297.343 198.141 297.612C198.192 297.945 198.099 298.235 197.862 298.48C197.633 298.723 197.303 298.878 196.872 298.945C196.351 299.026 195.86 298.951 195.4 298.723C194.939 298.486 194.558 298.124 194.257 297.637L192.97 298.448C193.211 298.927 193.536 299.331 193.945 299.66C194.361 299.979 194.83 300.206 195.351 300.343C195.88 300.477 196.433 300.5 197.011 300.411ZM207.257 298.828C207.933 298.723 208.541 298.509 209.083 298.183C209.624 297.858 210.078 297.45 210.443 296.961C210.809 296.471 211.066 295.923 211.214 295.317C211.369 294.701 211.395 294.06 211.292 293.392C211.188 292.717 210.969 292.113 210.637 291.581C210.313 291.048 209.903 290.607 209.408 290.259C208.911 289.902 208.356 289.651 207.741 289.504C207.127 289.357 206.482 289.336 205.807 289.44C205.131 289.545 204.523 289.76 203.982 290.085C203.44 290.41 202.987 290.818 202.621 291.308C202.262 291.788 202.004 292.332 201.848 292.939C201.7 293.545 201.678 294.186 201.783 294.862C201.886 295.529 202.1 296.133 202.425 296.675C202.757 297.207 203.172 297.651 203.668 298.007C204.165 298.364 204.721 298.616 205.335 298.762C205.949 298.909 206.59 298.931 207.257 298.828ZM207.023 297.314C206.437 297.405 205.887 297.348 205.372 297.144C204.866 296.939 204.441 296.617 204.098 296.179C203.756 295.74 203.537 295.216 203.443 294.605C203.348 293.995 203.399 293.433 203.595 292.919C203.789 292.398 204.097 291.963 204.518 291.614C204.947 291.265 205.455 291.045 206.041 290.954C206.635 290.862 207.185 290.919 207.692 291.124C208.198 291.329 208.623 291.651 208.966 292.089C209.307 292.52 209.525 293.04 209.62 293.651C209.714 294.261 209.664 294.827 209.469 295.349C209.275 295.87 208.967 296.305 208.546 296.654C208.125 297.002 207.618 297.222 207.023 297.314ZM214.581 297.546L216.242 297.29L215.323 291.345L220.563 296.622L221.869 296.42L220.464 287.326L218.804 287.582L219.705 293.417L214.47 288.252L213.176 288.452L214.581 297.546Z" fill="white"/>
<path opacity="0.5" d="M128.617 333.704C129.268 333.603 129.833 333.403 130.312 333.104C130.799 332.804 131.193 332.447 131.496 332.034C131.798 331.612 131.992 331.174 132.08 330.719L130.484 330.253C130.375 330.736 130.14 331.16 129.78 331.524C129.427 331.879 128.961 332.101 128.383 332.19C127.813 332.278 127.292 332.221 126.819 332.019C126.347 331.817 125.952 331.499 125.635 331.065C125.316 330.622 125.108 330.084 125.01 329.449C124.912 328.814 124.948 328.242 125.12 327.732C125.29 327.214 125.57 326.792 125.961 326.465C126.351 326.13 126.831 325.918 127.4 325.83C127.978 325.741 128.49 325.816 128.935 326.055C129.387 326.285 129.738 326.614 129.987 327.043L131.369 326.117C131.148 325.709 130.831 325.354 130.417 325.051C130.003 324.74 129.518 324.515 128.963 324.376C128.416 324.236 127.818 324.216 127.166 324.316C126.515 324.417 125.931 324.628 125.415 324.949C124.896 325.263 124.466 325.663 124.125 326.149C123.782 326.627 123.541 327.172 123.403 327.785C123.263 328.39 123.245 329.03 123.35 329.706C123.454 330.381 123.665 330.99 123.982 331.533C124.298 332.067 124.692 332.514 125.164 332.875C125.637 333.235 126.168 333.491 126.757 333.641C127.346 333.783 127.966 333.804 128.617 333.704ZM139.388 332.039C140.063 331.935 140.672 331.72 141.213 331.395C141.754 331.07 142.208 330.662 142.574 330.172C142.94 329.682 143.197 329.134 143.345 328.528C143.5 327.913 143.525 327.271 143.422 326.604C143.318 325.929 143.1 325.325 142.768 324.793C142.444 324.26 142.034 323.819 141.538 323.47C141.042 323.114 140.486 322.862 139.872 322.716C139.258 322.569 138.613 322.548 137.937 322.652C137.262 322.756 136.653 322.971 136.112 323.297C135.571 323.622 135.117 324.029 134.751 324.519C134.392 325 134.134 325.544 133.978 326.151C133.83 326.757 133.809 327.398 133.913 328.073C134.016 328.741 134.23 329.345 134.556 329.886C134.888 330.418 135.302 330.863 135.799 331.219C136.296 331.576 136.851 331.827 137.465 331.974C138.08 332.121 138.72 332.143 139.388 332.039ZM139.154 330.526C138.568 330.616 138.018 330.56 137.503 330.356C136.996 330.151 136.571 329.829 136.229 329.39C135.886 328.952 135.667 328.427 135.573 327.817C135.479 327.206 135.529 326.645 135.725 326.131C135.919 325.609 136.227 325.174 136.648 324.826C137.078 324.476 137.585 324.256 138.171 324.166C138.765 324.074 139.316 324.131 139.822 324.336C140.329 324.541 140.754 324.862 141.096 325.301C141.438 325.732 141.656 326.252 141.75 326.862C141.844 327.473 141.794 328.039 141.6 328.56C141.406 329.082 141.098 329.517 140.677 329.865C140.256 330.214 139.748 330.434 139.154 330.526ZM146.712 330.758L149.678 330.299C150.639 330.151 151.443 329.827 152.09 329.327C152.746 328.825 153.216 328.203 153.501 327.459C153.786 326.715 153.86 325.899 153.723 325.012C153.585 324.117 153.268 323.362 152.773 322.747C152.277 322.124 151.645 321.675 150.878 321.402C150.11 321.121 149.241 321.055 148.273 321.205L145.307 321.663L146.712 330.758ZM148.146 329.036L147.193 322.872L148.536 322.664C149.154 322.569 149.707 322.612 150.194 322.796C150.688 322.977 151.098 323.281 151.422 323.706C151.744 324.122 151.954 324.644 152.051 325.271C152.148 325.897 152.106 326.462 151.925 326.965C151.753 327.467 151.458 327.879 151.041 328.201C150.625 328.524 150.107 328.733 149.489 328.829L148.146 329.036ZM156.858 329.19L162.9 328.256L162.674 326.792L158.292 327.469L157.926 325.1L162.064 324.461L161.838 322.996L157.699 323.636L157.339 321.304L161.722 320.627L161.495 319.162L155.453 320.096L156.858 329.19ZM168.497 327.542C169.124 327.445 169.656 327.246 170.093 326.945C170.529 326.644 170.851 326.274 171.058 325.834C171.265 325.393 171.328 324.913 171.248 324.392C171.06 323.179 170.207 322.453 168.686 322.213L166.933 321.946C166.591 321.891 166.32 321.783 166.12 321.622C165.927 321.452 165.811 321.241 165.772 320.988C165.721 320.655 165.806 320.367 166.026 320.124C166.254 319.872 166.58 319.714 167.003 319.648C167.475 319.575 167.909 319.637 168.306 319.834C168.702 320.023 169.025 320.332 169.274 320.76L170.547 319.938C170.197 319.292 169.685 318.809 169.011 318.488C168.344 318.166 167.6 318.069 166.778 318.196C166.184 318.287 165.673 318.483 165.244 318.783C164.822 319.073 164.512 319.437 164.313 319.876C164.123 320.314 164.068 320.793 164.148 321.314C164.24 321.908 164.499 322.398 164.925 322.782C165.349 323.158 165.933 323.405 166.677 323.523L168.509 323.815C168.843 323.872 169.1 323.974 169.281 324.121C169.47 324.267 169.586 324.474 169.627 324.742C169.679 325.076 169.586 325.365 169.349 325.61C169.12 325.854 168.79 326.009 168.358 326.076C167.837 326.156 167.347 326.082 166.887 325.853C166.425 325.616 166.044 325.254 165.744 324.767L164.457 325.579C164.698 326.058 165.023 326.462 165.432 326.79C165.848 327.109 166.316 327.337 166.837 327.473C167.366 327.608 167.92 327.631 168.497 327.542ZM177.52 325.997L181.354 325.405C182.371 325.248 183.127 324.881 183.621 324.305C184.122 323.719 184.305 322.991 184.171 322.12C184.106 321.705 183.965 321.327 183.745 320.986C183.526 320.645 183.193 320.376 182.746 320.178C182.963 319.911 183.107 319.631 183.178 319.336C183.257 319.041 183.273 318.738 183.225 318.429C183.102 317.632 182.749 317.045 182.166 316.668C181.583 316.291 180.843 316.172 179.948 316.311L176.115 316.903L177.52 325.997ZM178.321 320.174L177.994 318.062L180.253 317.714C180.594 317.661 180.881 317.712 181.114 317.868C181.346 318.024 181.487 318.26 181.536 318.578C181.585 318.895 181.523 319.171 181.351 319.406C181.178 319.633 180.921 319.773 180.579 319.825L178.321 320.174ZM178.954 324.276L178.545 321.627L180.889 321.265C181.32 321.198 181.681 321.267 181.971 321.473C182.268 321.668 182.448 321.97 182.51 322.377C182.572 322.775 182.491 323.117 182.269 323.401C182.053 323.676 181.729 323.847 181.298 323.914L178.954 324.276ZM188.901 324.239L190.573 323.981L189.949 319.94L192.22 314.415L190.328 314.707L188.848 318.398L186.324 315.326L184.432 315.618L188.279 320.211L188.901 324.239ZM198.627 322.736L199.152 322.655C199.754 322.562 200.256 322.364 200.659 322.06C201.07 321.754 201.361 321.372 201.532 320.912C201.711 320.451 201.757 319.94 201.67 319.379L200.7 313.104L199.028 313.363L200.007 319.698C200.065 320.073 199.993 320.392 199.793 320.656C199.599 320.911 199.306 321.069 198.916 321.129L198.391 321.21L198.627 322.736ZM206.628 321.5L208.533 321.206L209.267 314.393L212.024 320.666L213.928 320.372L214.964 310.9L213.182 311.176L212.554 318.272L209.74 311.708L208.019 311.973L207.305 319.083L204.564 312.507L202.782 312.783L206.628 321.5Z" fill="white"/>
<path d="M281.028 124.404L283.585 124.009L287.217 108.449L284.678 108.841L281.028 124.404Z" fill="#F43F5E"/>
<path d="M294.242 121.635L296.657 121.262L295.902 116.379L298.175 116.028L301.664 120.488L304.398 120.066L300.542 115.226C301.228 114.804 301.735 114.241 302.062 113.536C302.402 112.829 302.501 112.02 302.36 111.109C302.221 110.209 301.909 109.482 301.423 108.927C300.937 108.371 300.32 107.988 299.573 107.776C298.835 107.551 298.016 107.508 297.116 107.647L292.198 108.407L294.242 121.635ZM295.573 114.248L294.942 110.164L297.481 109.772C298.132 109.671 298.681 109.774 299.129 110.081C299.576 110.387 299.848 110.854 299.945 111.482C300.04 112.097 299.922 112.625 299.59 113.064C299.256 113.491 298.763 113.755 298.112 113.856L295.573 114.248ZM308.227 119.474L310.837 119.071L311.357 116.082L316.471 115.291L317.851 117.987L320.479 117.581L313.872 105.058L310.747 105.541L308.227 119.474ZM311.72 113.844L312.723 107.98L315.449 113.268L311.72 113.844ZM325.28 116.839L327.695 116.466L326.941 111.583L329.213 111.232L332.702 115.692L335.437 115.27L331.58 110.43C332.267 110.009 332.773 109.445 333.101 108.74C333.44 108.034 333.539 107.224 333.398 106.313C333.259 105.413 332.947 104.686 332.461 104.131C331.975 103.575 331.359 103.192 330.611 102.98C329.873 102.755 329.054 102.712 328.155 102.851L323.236 103.611L325.28 116.839ZM326.611 109.452L325.98 105.368L328.52 104.976C329.171 104.875 329.72 104.978 330.167 105.285C330.614 105.592 330.887 106.059 330.984 106.686C331.079 107.302 330.96 107.829 330.628 108.268C330.294 108.695 329.802 108.959 329.151 109.06L326.611 109.452ZM340.349 114.511L349.138 113.153L348.809 111.022L342.434 112.007L341.902 108.562L347.921 107.632L347.592 105.501L341.573 106.431L341.049 103.04L347.423 102.055L347.094 99.9244L338.305 101.282L340.349 114.511ZM354.238 112.365L359.813 111.503C361.293 111.275 362.392 110.741 363.111 109.903C363.84 109.051 364.107 107.992 363.911 106.725C363.818 106.121 363.611 105.571 363.292 105.075C362.973 104.579 362.489 104.187 361.838 103.9C362.154 103.512 362.364 103.104 362.467 102.676C362.582 102.246 362.605 101.806 362.536 101.356C362.357 100.196 361.843 99.3423 360.995 98.7946C360.147 98.247 359.071 98.0737 357.769 98.2749L352.194 99.1364L354.238 112.365ZM355.402 103.895L354.927 100.823L358.212 100.315C358.709 100.239 359.127 100.313 359.465 100.54C359.803 100.767 360.007 101.111 360.079 101.572C360.15 102.034 360.06 102.436 359.81 102.777C359.558 103.107 359.184 103.31 358.686 103.387L355.402 103.895ZM356.323 109.861L355.728 106.008L359.137 105.481C359.765 105.384 360.289 105.485 360.711 105.783C361.143 106.068 361.405 106.506 361.496 107.098C361.586 107.678 361.468 108.175 361.145 108.589C360.831 108.989 360.36 109.237 359.733 109.334L356.323 109.861ZM369.844 109.953L377.923 108.705L377.593 106.574L371.929 107.449L370.215 96.3519L367.8 96.7251L369.844 109.953ZM389.016 107.209C389.999 107.057 390.884 106.745 391.671 106.272C392.459 105.798 393.119 105.206 393.651 104.493C394.183 103.781 394.557 102.984 394.772 102.102C394.997 101.207 395.035 100.274 394.885 99.3029C394.733 98.3204 394.416 97.4423 393.933 96.6686C393.461 95.893 392.865 95.2518 392.145 94.7451C391.422 94.2265 390.614 93.8605 389.721 93.647C388.827 93.4336 387.889 93.4028 386.907 93.5546C385.924 93.7064 385.039 94.0189 384.252 94.4921C383.464 94.9652 382.805 95.558 382.272 96.2705C381.75 96.9693 381.375 97.7605 381.148 98.6439C380.933 99.5256 380.901 100.458 381.053 101.44C381.203 102.411 381.515 103.29 381.988 104.077C382.471 104.851 383.074 105.497 383.796 106.016C384.519 106.534 385.327 106.9 386.22 107.114C387.114 107.327 388.046 107.359 389.016 107.209ZM388.676 105.007C387.824 105.139 387.023 105.057 386.275 104.76C385.538 104.462 384.92 103.994 384.422 103.356C383.923 102.718 383.605 101.955 383.468 101.067C383.331 100.179 383.404 99.3619 383.689 98.615C383.972 97.8562 384.419 97.2235 385.032 96.7167C385.656 96.2082 386.395 95.8881 387.247 95.7564C388.111 95.6228 388.912 95.7052 389.648 96.0034C390.385 96.3016 391.003 96.7697 391.502 97.4078C391.998 98.034 392.315 98.791 392.452 99.6788C392.59 100.567 392.517 101.39 392.234 102.149C391.951 102.907 391.504 103.54 390.891 104.047C390.279 104.554 389.54 104.874 388.676 105.007ZM407.632 104.333C408.579 104.186 409.401 103.896 410.097 103.461C410.806 103.024 411.38 102.505 411.82 101.904C412.259 101.291 412.542 100.653 412.67 99.9909L410.347 99.3135C410.189 100.017 409.848 100.633 409.324 101.162C408.81 101.678 408.133 102.001 407.292 102.131C406.464 102.259 405.705 102.176 405.018 101.882C404.33 101.589 403.755 101.126 403.294 100.494C402.831 99.8507 402.528 99.0673 402.386 98.144C402.243 97.2207 402.296 96.3883 402.545 95.6469C402.792 94.8936 403.201 94.2791 403.769 93.8033C404.336 93.3158 405.034 93.008 405.863 92.8799C406.703 92.7501 407.447 92.8593 408.095 93.2077C408.753 93.5424 409.263 94.021 409.626 94.6437L411.636 93.2969C411.314 92.7043 410.852 92.1878 410.251 91.7474C409.648 91.2952 408.943 90.9678 408.136 90.7653C407.341 90.5609 406.47 90.5319 405.523 90.6782C404.576 90.8245 403.726 91.1315 402.974 91.5992C402.221 92.055 401.595 92.6364 401.099 93.3434C400.6 94.0385 400.25 94.832 400.048 95.7236C399.845 96.6034 399.819 97.5346 399.971 98.5171C400.123 99.4996 400.429 100.385 400.891 101.175C401.35 101.952 401.923 102.603 402.61 103.127C403.297 103.651 404.07 104.023 404.928 104.241C405.784 104.449 406.685 104.479 407.632 104.333ZM418.465 102.441L420.879 102.068L420.306 98.3565L421.755 95.9692L426.206 101.244L429.047 100.806L423.102 93.7432L426.843 87.602L423.807 88.0711L419.744 94.7166L418.836 88.8393L416.421 89.2124L418.465 102.441ZM438.428 99.5742C439.339 99.4334 440.113 99.1442 440.748 98.7067C441.383 98.2692 441.851 97.7302 442.152 97.0898C442.453 96.4494 442.545 95.7504 442.428 94.9929C442.156 93.2291 440.914 92.1726 438.703 91.8235L436.152 91.4358C435.655 91.3551 435.261 91.1978 434.97 90.964C434.69 90.7165 434.521 90.4092 434.464 90.0423C434.389 89.5569 434.512 89.138 434.834 88.7853C435.165 88.419 435.638 88.1883 436.254 88.0932C436.94 87.9871 437.572 88.0773 438.15 88.3638C438.726 88.6384 439.195 89.0871 439.558 89.7097L441.409 88.5147C440.9 87.5752 440.156 86.8722 439.174 86.4057C438.205 85.9373 437.123 85.7955 435.927 85.9802C435.063 86.1138 434.319 86.3984 433.696 86.8341C433.082 87.2561 432.631 87.7864 432.342 88.425C432.064 89.0617 431.984 89.7588 432.101 90.5164C432.235 91.3806 432.611 92.092 433.231 92.6507C433.849 93.1976 434.698 93.5572 435.779 93.7296L438.445 94.154C438.93 94.2366 439.304 94.3848 439.568 94.5986C439.843 94.8106 440.011 95.1119 440.071 95.5025C440.146 95.9879 440.011 96.4087 439.666 96.765C439.333 97.1194 438.853 97.3451 438.226 97.4421C437.468 97.5591 436.754 97.4512 436.085 97.1184C435.413 96.7737 434.859 96.2472 434.423 95.539L432.551 96.7191C432.901 97.4164 433.373 98.0039 433.968 98.4816C434.573 98.9457 435.255 99.2767 436.013 99.4747C436.782 99.6709 437.587 99.7041 438.428 99.5742Z" fill="white"/>
<defs>
<filter id="filter0_f_5_267" x="0.983406" y="0.71888" width="555.717" height="428.297" filterUnits="userSpaceOnUse" color-interpolation-filters="sRGB">
<feFlood flood-opacity="0" result="BackgroundImageFix"/>
<feBlend mode="normal" in="SourceGraphic" in2="BackgroundImageFix" result="shape"/>
<feGaussianBlur stdDeviation="39.3022" result="effect1_foregroundBlur_5_267"/>
</filter>
<filter id="filter1_f_5_267" x="-362.73" y="-302.857" width="884.889" height="884.889" filterUnits="userSpaceOnUse" color-interpolation-filters="sRGB">
<feFlood flood-opacity="0" result="BackgroundImageFix"/>
<feBlend mode="normal" in="SourceGraphic" in2="BackgroundImageFix" result="shape"/>
<feGaussianBlur stdDeviation="170.684" result="effect1_foregroundBlur_5_267"/>
</filter>
<filter id="filter2_f_5_267" x="42.2105" y="-152.948" width="884.889" height="884.889" filterUnits="userSpaceOnUse" color-interpolation-filters="sRGB">
<feFlood flood-opacity="0" result="BackgroundImageFix"/>
<feBlend mode="normal" in="SourceGraphic" in2="BackgroundImageFix" result="shape"/>
<feGaussianBlur stdDeviation="170.684" result="effect1_foregroundBlur_5_267"/>
</filter>
<linearGradient id="paint0_linear_5_267" x1="476.074" y1="400.716" x2="844.954" y2="400.716" gradientUnits="userSpaceOnUse">
<stop stop-color="#4484FF"/>
<stop offset="0.234375" stop-color="#44B0FF"/>
<stop offset="0.489583" stop-color="#FF44EC"/>
<stop offset="0.739583" stop-color="#44A5FF"/>
<stop offset="1" stop-color="#F2FF5E"/>
</linearGradient>
<linearGradient id="paint1_linear_5_267" x1="337.8" y1="371.222" x2="46.9635" y2="94.9834" gradientUnits="userSpaceOnUse">
<stop offset="0.507336"/>
<stop offset="1" stop-opacity="0"/>
</linearGradient>
<linearGradient id="paint2_linear_5_267" x1="133.65" y1="198.176" x2="144.684" y2="269.588" gradientUnits="userSpaceOnUse">
<stop stop-color="#F3EC58"/>
<stop offset="0.4" stop-color="#F6CA45"/>
<stop offset="0.77" stop-color="#F9B036"/>
<stop offset="1" stop-color="#FAA631"/>
</linearGradient>
</defs>
</svg>
