<svg width="638" height="553" viewBox="0 0 638 553" fill="none" xmlns="http://www.w3.org/2000/svg">
<g filter="url(#filter0_f_5_351)">
<rect x="168.305" y="84.9744" width="376.088" height="209.277" transform="rotate(16.72 168.305 84.9744)" fill="url(#paint0_linear_5_351)"/>
</g>
<g filter="url(#filter1_d_5_351)">
<rect x="149.483" y="42" width="436.721" height="276.268" rx="18.0962" transform="rotate(16.7205 149.483 42)" fill="white"/>
</g>
<mask id="mask0_5_351" style="mask-type:alpha" maskUnits="userSpaceOnUse" x="74" y="46" width="490" height="382">
<rect x="149.483" y="42" width="436.721" height="276.268" rx="18.0962" transform="rotate(16.7205 149.483 42)" fill="white"/>
</mask>
<g mask="url(#mask0_5_351)">
<g opacity="0.18">
<line x1="147.446" y1="33.3451" x2="395.632" y2="406.444" stroke="#18181B" stroke-width="1.20641"/>
<line x1="140.975" y1="33.9205" x2="389.16" y2="407.019" stroke="#18181B" stroke-width="1.20641"/>
<line x1="134.503" y1="34.496" x2="382.689" y2="407.594" stroke="#18181B" stroke-width="1.20641"/>
<line x1="128.033" y1="35.0712" x2="376.218" y2="408.17" stroke="#18181B" stroke-width="1.20641"/>
<line x1="121.561" y1="35.6466" x2="369.747" y2="408.745" stroke="#18181B" stroke-width="1.20641"/>
<line x1="115.09" y1="36.2221" x2="363.275" y2="409.32" stroke="#18181B" stroke-width="1.20641"/>
<line x1="108.618" y1="36.7973" x2="356.804" y2="409.896" stroke="#18181B" stroke-width="1.20641"/>
<line x1="102.148" y1="37.3727" x2="350.333" y2="410.471" stroke="#18181B" stroke-width="1.20641"/>
<line x1="95.6763" y1="37.9481" x2="343.862" y2="411.047" stroke="#18181B" stroke-width="1.20641"/>
<line x1="89.2049" y1="38.5233" x2="337.391" y2="411.622" stroke="#18181B" stroke-width="1.20641"/>
<line x1="82.7333" y1="39.0988" x2="330.919" y2="412.197" stroke="#18181B" stroke-width="1.20641"/>
<line x1="76.2629" y1="39.6742" x2="324.449" y2="412.773" stroke="#18181B" stroke-width="1.20641"/>
<line x1="69.7914" y1="40.2497" x2="317.977" y2="413.348" stroke="#18181B" stroke-width="1.20641"/>
<line x1="63.3199" y1="40.8248" x2="311.506" y2="413.923" stroke="#18181B" stroke-width="1.20641"/>
<line x1="56.8484" y1="41.4003" x2="305.034" y2="414.499" stroke="#18181B" stroke-width="1.20641"/>
<line x1="50.378" y1="41.9757" x2="298.564" y2="415.074" stroke="#18181B" stroke-width="1.20641"/>
<line x1="43.9064" y1="42.5509" x2="292.092" y2="415.649" stroke="#18181B" stroke-width="1.20641"/>
<line x1="37.435" y1="43.1264" x2="285.621" y2="416.225" stroke="#18181B" stroke-width="1.20641"/>
<line x1="30.9635" y1="43.7018" x2="279.149" y2="416.8" stroke="#18181B" stroke-width="1.20641"/>
<line x1="24.493" y1="44.277" x2="272.679" y2="417.375" stroke="#18181B" stroke-width="1.20641"/>
<line x1="18.0215" y1="44.8524" x2="266.207" y2="417.951" stroke="#18181B" stroke-width="1.20641"/>
<line x1="11.5501" y1="45.4279" x2="259.736" y2="418.526" stroke="#18181B" stroke-width="1.20641"/>
<line x1="5.07853" y1="46.0031" x2="253.264" y2="419.101" stroke="#18181B" stroke-width="1.20641"/>
<line x1="-1.39193" y1="46.5785" x2="246.794" y2="419.677" stroke="#18181B" stroke-width="1.20641"/>
<line x1="-7.86336" y1="47.1539" x2="240.322" y2="420.252" stroke="#18181B" stroke-width="1.20641"/>
<line x1="-14.3349" y1="47.7294" x2="233.851" y2="420.828" stroke="#18181B" stroke-width="1.20641"/>
<line x1="-20.8064" y1="48.3046" x2="227.379" y2="421.403" stroke="#18181B" stroke-width="1.20641"/>
<line x1="-27.2758" y1="48.88" x2="220.91" y2="421.978" stroke="#18181B" stroke-width="1.20641"/>
<line x1="-33.7473" y1="49.4555" x2="214.438" y2="422.554" stroke="#18181B" stroke-width="1.20641"/>
<line x1="-40.2198" y1="50.0307" x2="207.966" y2="423.129" stroke="#18181B" stroke-width="1.20641"/>
<line x1="-46.6893" y1="50.6061" x2="201.496" y2="423.704" stroke="#18181B" stroke-width="1.20641"/>
<line x1="154.726" y1="34.2724" x2="402.912" y2="407.371" stroke="#18181B" stroke-width="1.20641"/>
<line x1="162.004" y1="35.1994" x2="410.19" y2="408.298" stroke="#18181B" stroke-width="1.20641"/>
<line x1="169.284" y1="36.1266" x2="417.47" y2="409.225" stroke="#18181B" stroke-width="1.20641"/>
<line x1="176.564" y1="37.0536" x2="424.749" y2="410.152" stroke="#18181B" stroke-width="1.20641"/>
<line x1="183.843" y1="37.9809" x2="432.029" y2="411.079" stroke="#18181B" stroke-width="1.20641"/>
<line x1="191.123" y1="38.9079" x2="439.309" y2="412.006" stroke="#18181B" stroke-width="1.20641"/>
<line x1="198.403" y1="39.8351" x2="446.588" y2="412.934" stroke="#18181B" stroke-width="1.20641"/>
<line x1="205.681" y1="40.7621" x2="453.867" y2="413.861" stroke="#18181B" stroke-width="1.20641"/>
<line x1="212.961" y1="41.6893" x2="461.147" y2="414.788" stroke="#18181B" stroke-width="1.20641"/>
<line x1="220.241" y1="42.6164" x2="468.426" y2="415.715" stroke="#18181B" stroke-width="1.20641"/>
<line x1="227.52" y1="43.5436" x2="475.706" y2="416.642" stroke="#18181B" stroke-width="1.20641"/>
<line x1="234.8" y1="44.4706" x2="482.986" y2="417.569" stroke="#18181B" stroke-width="1.20641"/>
<line x1="242.08" y1="45.3978" x2="490.265" y2="418.496" stroke="#18181B" stroke-width="1.20641"/>
<line x1="249.358" y1="46.3248" x2="497.544" y2="419.423" stroke="#18181B" stroke-width="1.20641"/>
<line x1="256.638" y1="47.2521" x2="504.824" y2="420.35" stroke="#18181B" stroke-width="1.20641"/>
<line x1="263.918" y1="48.1791" x2="512.103" y2="421.277" stroke="#18181B" stroke-width="1.20641"/>
<line x1="271.197" y1="49.1063" x2="519.383" y2="422.205" stroke="#18181B" stroke-width="1.20641"/>
<line x1="278.477" y1="50.0336" x2="526.663" y2="423.132" stroke="#18181B" stroke-width="1.20641"/>
<line x1="285.757" y1="50.9606" x2="533.942" y2="424.059" stroke="#18181B" stroke-width="1.20641"/>
<line x1="293.035" y1="51.8878" x2="541.221" y2="424.986" stroke="#18181B" stroke-width="1.20641"/>
<line x1="300.315" y1="52.8148" x2="548.501" y2="425.913" stroke="#18181B" stroke-width="1.20641"/>
<line x1="307.595" y1="53.7421" x2="555.78" y2="426.84" stroke="#18181B" stroke-width="1.20641"/>
<line x1="314.875" y1="54.6691" x2="563.061" y2="427.767" stroke="#18181B" stroke-width="1.20641"/>
</g>
<rect x="149.483" y="42" width="436.721" height="276.268" rx="18.0962" transform="rotate(16.7205 149.483 42)" fill="url(#paint1_linear_5_351)"/>
<g filter="url(#filter2_f_5_351)">
<circle cx="155.826" cy="75.3973" r="108.577" transform="rotate(16.7205 155.826 75.3973)" fill="#D2D2D2"/>
</g>
<g filter="url(#filter3_f_5_351)">
<circle cx="479.136" cy="408.08" r="108.577" transform="rotate(16.7205 479.136 408.08)" fill="#C8C8C8"/>
</g>
</g>
<path d="M199.698 210.302L209.161 178.801C210.38 174.743 207.281 170.214 202.251 168.703L156.948 155.094C151.917 153.582 146.833 155.654 145.614 159.711L136.151 191.212C134.932 195.27 138.034 199.798 143.065 201.309L188.367 214.918C193.398 216.428 198.48 214.359 199.698 210.302ZM143.242 200.719C138.614 199.329 135.762 195.162 136.883 191.432L146.346 159.931C147.467 156.198 152.143 154.293 156.771 155.684L202.073 169.293C206.699 170.682 209.551 174.849 208.43 178.581L198.967 210.082C197.846 213.813 193.17 215.718 188.544 214.328L143.242 200.719Z" fill="#3F3F46"/>
<path d="M188.544 214.33L143.243 200.721C141.018 200.052 139.099 198.698 137.907 196.958C136.714 195.217 136.346 193.231 136.882 191.436L146.346 159.932C147.468 156.2 152.144 154.295 156.771 155.685L202.073 169.294C206.699 170.684 209.551 174.85 208.43 178.583L198.966 210.086C197.846 213.814 193.17 215.719 188.544 214.33Z" fill="url(#paint2_linear_5_351)"/>
<path d="M137.881 185.896L138.058 185.306L158.919 191.573C160.302 191.987 161.76 191.942 162.975 191.447C164.189 190.952 165.06 190.049 165.397 188.934L168.763 177.728C169.096 176.613 168.868 175.378 168.127 174.296C167.386 173.214 166.194 172.373 164.812 171.956L143.951 165.689L144.128 165.099L164.989 171.366C166.565 171.841 167.925 172.801 168.77 174.035C169.614 175.268 169.875 176.676 169.495 177.948L166.128 189.154C165.745 190.425 164.752 191.455 163.367 192.019C161.982 192.584 160.319 192.635 158.742 192.163L137.881 185.896Z" fill="#383335"/>
<path d="M178.24 192.792L181.606 181.586C181.99 180.315 182.983 179.285 184.368 178.72C185.753 178.156 187.417 178.105 188.994 178.577L207.522 184.143L207.344 184.733L188.816 179.167C187.434 178.753 185.975 178.798 184.76 179.293C183.546 179.788 182.675 180.692 182.338 181.806L178.972 193.012C178.639 194.128 178.867 195.362 179.608 196.444C180.349 197.526 181.541 198.368 182.923 198.784L201.451 204.35L201.274 204.94L182.746 199.374C181.17 198.899 179.81 197.94 178.966 196.706C178.121 195.472 177.86 194.064 178.24 192.792Z" fill="#383335"/>
<path d="M181.726 182.514L181.904 181.924L169.06 178.065L168.883 178.655L181.726 182.514Z" fill="#383335"/>
<path d="M178.674 192.674L178.852 192.084L166.008 188.226L165.831 188.816L178.674 192.674Z" fill="#383335"/>
<path d="M150.642 203.265L154.46 190.555L153.729 190.336L149.911 203.045L150.642 203.265Z" fill="#383335"/>
<path d="M160.531 170.348L164.349 157.638L163.618 157.419L159.8 170.128L160.531 170.348Z" fill="#383335"/>
<path d="M183.057 213.002L186.875 200.293L186.143 200.073L182.325 212.782L183.057 213.002Z" fill="#383335"/>
<path d="M192.944 180.086L196.762 167.376L196.031 167.156L192.213 179.866L192.944 180.086Z" fill="#383335"/>
<path d="M203.959 194.792L204.137 194.202L180.361 187.06L180.184 187.65L203.959 194.792Z" fill="#383335"/>
<path d="M167.108 183.722L167.285 183.132L141.071 175.257L140.893 175.847L167.108 183.722Z" fill="#383335"/>
<path d="M413.054 376.528L404.569 373.979L419.662 342.981L428.148 345.53L413.054 376.528ZM407.221 339.244L392.398 359.23L392.891 354.115L392.891 354.117L394.439 338.603C394.439 338.603 394.975 335.565 391.295 334.46L377.922 330.442L377.599 330.947C377.599 330.947 381.433 333.026 385.356 337.338L384.222 367.868L393.063 370.523L416.353 341.987L407.221 339.244ZM464.17 391.883L471.961 394.224L474.959 359.592L468.138 357.543C464.988 356.596 463.491 358.795 463.491 358.795L441.776 385.156L450.621 387.813L453.844 383.503L464.63 386.744L464.17 391.883ZM458.296 377.55L466.419 366.693L465.263 379.643L458.296 377.55ZM449.875 360.602L453.188 353.967C453.188 353.967 449.879 351.423 445.984 350.253C441.773 348.988 431.221 347.825 428.532 356.774C426.003 365.193 437.708 368.824 436.379 373.246C435.051 377.669 424.762 373.714 422.126 369.882L418.666 376.82C418.666 376.82 421.902 379.799 427.69 381.538C433.481 383.277 443.117 382.903 445.568 374.743C448.114 366.27 436.509 361.923 437.616 358.239C438.724 354.555 446.845 357.51 449.875 360.602Z" fill="#2566AF"/>
<path d="M392.892 354.116L394.439 338.602C394.439 338.602 394.976 335.564 391.296 334.459L377.923 330.441L377.6 330.946C377.6 330.946 383.627 334.209 388.293 341.052C392.755 347.593 392.892 354.116 392.892 354.116Z" fill="#E6A540"/>
<path d="M116.022 261.539L122.313 263.429L122.771 261.904L118.209 260.533L118.949 258.068L123.258 259.362L123.716 257.837L119.407 256.542L120.137 254.115L124.699 255.486L125.157 253.96L118.866 252.071L116.022 261.539ZM128.071 265.325C128.723 265.521 129.331 265.574 129.894 265.484C130.456 265.395 130.94 265.184 131.344 264.853C131.748 264.522 132.032 264.085 132.195 263.543C132.574 262.281 132.082 261.181 130.719 260.245L129.142 259.176C128.836 258.964 128.624 258.734 128.504 258.485C128.396 258.231 128.381 257.973 128.46 257.71C128.564 257.363 128.78 257.122 129.106 256.99C129.443 256.851 129.832 256.847 130.273 256.98C130.764 257.127 131.157 257.389 131.451 257.763C131.747 258.129 131.918 258.578 131.961 259.108L133.576 258.9C133.535 258.112 133.262 257.407 132.757 256.784C132.26 256.163 131.583 255.724 130.727 255.467C130.109 255.282 129.522 255.235 128.968 255.327C128.425 255.413 127.955 255.623 127.56 255.957C127.172 256.293 126.897 256.732 126.734 257.275C126.548 257.893 126.573 258.487 126.808 259.057C127.046 259.618 127.498 260.128 128.164 260.586L129.806 261.717C130.103 261.926 130.306 262.144 130.413 262.371C130.529 262.599 130.545 262.854 130.461 263.133C130.357 263.481 130.133 263.718 129.79 263.846C129.455 263.976 129.063 263.974 128.614 263.839C128.072 263.676 127.631 263.377 127.29 262.943C126.952 262.499 126.75 261.972 126.684 261.361L125.061 261.552C125.073 262.129 125.201 262.671 125.446 263.178C125.701 263.68 126.05 264.117 126.492 264.491C126.943 264.866 127.469 265.144 128.071 265.325ZM135.798 267.48L137.539 268.003L139.925 260.06L142.34 260.785L142.798 259.26L136.189 257.274L135.731 258.8L138.184 259.536L135.798 267.48ZM142.164 269.392L143.893 269.912L145.038 266.099L149.067 267.309L147.921 271.122L149.663 271.645L152.507 262.176L150.766 261.653L149.525 265.784L145.496 264.574L146.737 260.443L145.008 259.924L142.164 269.392ZM152.641 272.539L158.932 274.429L159.39 272.904L154.827 271.534L155.568 269.068L159.876 270.362L160.335 268.837L156.026 267.543L156.755 265.115L161.318 266.486L161.776 264.961L155.485 263.071L152.641 272.539ZM161.355 275.157L163.083 275.676L164.133 272.181L165.76 272.67L166.667 276.753L168.624 277.341L167.593 272.888C168.184 272.826 168.701 272.611 169.144 272.246C169.595 271.882 169.918 271.374 170.114 270.722C170.307 270.078 170.331 269.494 170.183 268.969C170.036 268.444 169.747 267.993 169.316 267.614C168.896 267.229 168.363 266.94 167.72 266.746L164.199 265.689L161.355 275.157ZM164.591 270.656L165.469 267.733L167.287 268.279C167.753 268.419 168.086 268.662 168.287 269.009C168.488 269.356 168.52 269.754 168.386 270.203C168.253 270.643 168.007 270.957 167.645 271.144C167.287 271.323 166.875 271.342 166.409 271.202L164.591 270.656ZM174.327 279.054L176.055 279.573L177.201 275.761L181.23 276.971L180.084 280.784L181.826 281.307L184.67 271.838L182.929 271.315L181.688 275.446L177.659 274.235L178.9 270.105L177.171 269.586L174.327 279.054ZM189.422 283.755C190.125 283.966 190.815 284.039 191.49 283.974C192.165 283.909 192.794 283.724 193.375 283.418C193.957 283.113 194.459 282.7 194.883 282.181C195.318 281.656 195.64 281.046 195.849 280.351C196.06 279.648 196.128 278.961 196.051 278.292C195.984 277.625 195.791 277.008 195.471 276.441C195.155 275.865 194.732 275.365 194.205 274.938C193.677 274.512 193.061 274.193 192.358 273.982C191.655 273.77 190.965 273.697 190.29 273.762C189.615 273.827 188.986 274.012 188.405 274.318C187.834 274.618 187.333 275.026 186.901 275.543C186.477 276.062 186.159 276.674 185.948 277.377C185.739 278.072 185.667 278.757 185.732 279.432C185.808 280.101 186.005 280.724 186.321 281.299C186.638 281.875 187.06 282.376 187.588 282.802C188.116 283.229 188.727 283.546 189.422 283.755ZM189.895 282.179C189.285 281.996 188.778 281.686 188.373 281.251C187.977 280.817 187.714 280.309 187.584 279.725C187.455 279.141 187.486 278.531 187.676 277.896C187.867 277.261 188.176 276.739 188.604 276.332C189.033 275.916 189.533 275.636 190.103 275.493C190.681 275.353 191.275 275.374 191.885 275.557C192.503 275.743 193.011 276.053 193.407 276.486C193.803 276.919 194.066 277.428 194.196 278.012C194.328 278.587 194.298 279.192 194.107 279.828C193.917 280.463 193.606 280.989 193.176 281.405C192.747 281.821 192.247 282.1 191.677 282.243C191.108 282.386 190.514 282.365 189.895 282.179ZM198.635 286.357L200.618 286.952L204.482 280.686L204.253 288.044L206.236 288.64L211.622 279.935L209.766 279.377L205.874 285.968L206.182 278.301L204.39 277.762L200.409 284.326L200.793 276.682L198.938 276.124L198.635 286.357ZM209.698 289.68L211.566 290.241L212.863 288.414L216.523 289.513L216.586 291.749L218.467 292.314L218.045 281.864L215.808 281.192L209.698 289.68ZM213.817 287.037L216.35 283.447L216.486 287.839L213.817 287.037ZM220.676 292.978L222.405 293.497L223.455 290.002L225.082 290.491L225.989 294.574L227.946 295.162L226.914 290.709C227.506 290.646 228.023 290.432 228.465 290.066C228.916 289.703 229.24 289.195 229.436 288.542C229.629 287.898 229.652 287.314 229.505 286.79C229.358 286.265 229.069 285.813 228.637 285.434C228.217 285.049 227.685 284.76 227.041 284.567L223.521 283.509L220.676 292.978ZM223.913 288.477L224.791 285.554L226.608 286.1C227.074 286.24 227.408 286.483 227.609 286.83C227.809 287.176 227.842 287.574 227.707 288.023C227.575 288.464 227.328 288.778 226.967 288.965C226.609 289.143 226.196 289.163 225.73 289.023L223.913 288.477ZM230.234 295.849L233.323 296.777C234.323 297.077 235.252 297.135 236.111 296.949C236.979 296.767 237.723 296.381 238.344 295.791C238.964 295.201 239.413 294.445 239.691 293.521C239.971 292.589 240.013 291.711 239.818 290.885C239.625 290.051 239.22 289.324 238.602 288.705C237.987 288.077 237.175 287.611 236.167 287.308L233.079 286.38L230.234 295.849ZM232.421 294.843L234.349 288.425L235.747 288.845C236.391 289.038 236.907 289.336 237.294 289.739C237.689 290.144 237.946 290.628 238.063 291.19C238.184 291.743 238.146 292.346 237.95 292.998C237.754 293.651 237.452 294.179 237.044 294.583C236.645 294.99 236.168 295.253 235.615 295.373C235.062 295.493 234.463 295.457 233.819 295.263L232.421 294.843Z" fill="#18181B"/>
<path opacity="0.5" d="M109.08 284.647L110.809 285.166L111.859 281.671L113.485 282.16L114.393 286.243L116.35 286.831L115.318 282.378C115.91 282.316 116.427 282.101 116.869 281.736C117.32 281.372 117.644 280.864 117.84 280.212C118.033 279.568 118.056 278.984 117.909 278.459C117.762 277.934 117.473 277.483 117.041 277.104C116.621 276.719 116.089 276.43 115.445 276.236L111.925 275.179L109.08 284.647ZM112.317 280.146L113.195 277.223L115.012 277.769C115.478 277.909 115.812 278.152 116.013 278.499C116.213 278.846 116.246 279.244 116.111 279.693C115.979 280.133 115.732 280.447 115.371 280.634C115.013 280.813 114.6 280.832 114.134 280.692L112.317 280.146ZM118.219 287.393L118.765 287.557C119.392 287.745 119.972 287.785 120.503 287.677C121.043 287.571 121.502 287.335 121.88 286.968C122.266 286.604 122.547 286.129 122.723 285.545L124.685 279.012L122.944 278.489L120.963 285.085C120.846 285.475 120.629 285.752 120.312 285.915C120.006 286.073 119.649 286.09 119.243 285.968L118.696 285.804L118.219 287.393ZM128.197 290.39L131.286 291.318C132.286 291.618 133.215 291.676 134.075 291.491C134.942 291.308 135.687 290.922 136.307 290.332C136.928 289.743 137.377 288.986 137.654 288.062C137.934 287.13 137.976 286.252 137.781 285.426C137.588 284.592 137.183 283.866 136.565 283.246C135.95 282.618 135.139 282.152 134.13 281.849L131.042 280.922L128.197 290.39ZM130.384 289.384L132.312 282.966L133.71 283.386C134.354 283.579 134.87 283.877 135.257 284.28C135.652 284.685 135.909 285.169 136.027 285.731C136.147 286.284 136.109 286.887 135.913 287.539C135.717 288.192 135.415 288.72 135.007 289.124C134.608 289.531 134.132 289.794 133.578 289.914C133.025 290.034 132.426 289.998 131.782 289.804L130.384 289.384ZM138.761 293.563L145.052 295.453L145.51 293.928L140.947 292.558L141.688 290.092L145.997 291.386L146.455 289.861L142.146 288.567L142.876 286.139L147.438 287.51L147.896 285.985L141.605 284.095L138.761 293.563ZM150.004 296.941L151.987 297.537L158.123 289.057L156.242 288.492L151.652 295.053L151.425 287.045L149.544 286.48L150.004 296.941ZM157.492 299.19L163.783 301.08L164.241 299.555L159.679 298.185L160.419 295.719L164.728 297.013L165.186 295.488L160.878 294.194L161.607 291.766L166.17 293.137L166.628 291.612L160.337 289.722L157.492 299.19ZM166.206 301.808L171.989 303.545L172.447 302.02L168.393 300.802L170.779 292.859L169.051 292.34L166.206 301.808ZM178.633 305.707C179.336 305.919 180.025 305.992 180.701 305.927C181.376 305.862 182.005 305.676 182.586 305.371C183.167 305.065 183.67 304.653 184.094 304.133C184.529 303.608 184.851 302.998 185.059 302.303C185.271 301.6 185.338 300.914 185.262 300.244C185.195 299.577 185.001 298.96 184.682 298.393C184.365 297.818 183.943 297.317 183.415 296.89C182.888 296.464 182.272 296.145 181.569 295.934C180.866 295.723 180.176 295.649 179.501 295.714C178.825 295.779 178.197 295.965 177.616 296.27C177.045 296.57 176.544 296.979 176.111 297.495C175.688 298.015 175.37 298.626 175.159 299.329C174.95 300.024 174.878 300.709 174.943 301.384C175.019 302.054 175.216 302.676 175.532 303.252C175.849 303.827 176.271 304.328 176.799 304.755C177.327 305.181 177.938 305.499 178.633 305.707ZM179.106 304.131C178.496 303.948 177.989 303.639 177.584 303.203C177.187 302.77 176.924 302.261 176.795 301.677C176.666 301.093 176.696 300.484 176.887 299.848C177.078 299.213 177.387 298.691 177.814 298.284C178.244 297.868 178.744 297.589 179.313 297.446C179.891 297.305 180.485 297.327 181.095 297.51C181.714 297.696 182.221 298.005 182.618 298.438C183.014 298.871 183.277 299.38 183.407 299.964C183.539 300.539 183.509 301.145 183.318 301.78C183.127 302.416 182.817 302.941 182.387 303.357C181.957 303.773 181.458 304.053 180.888 304.196C180.319 304.339 179.725 304.317 179.106 304.131ZM186.328 307.853L188.056 308.372L189.106 304.877L190.911 305.419C191.555 305.612 192.157 305.669 192.717 305.587C193.28 305.498 193.768 305.271 194.183 304.905C194.606 304.543 194.911 304.048 195.1 303.421C195.293 302.777 195.316 302.193 195.169 301.668C195.022 301.144 194.733 300.692 194.301 300.313C193.881 299.928 193.349 299.639 192.705 299.446L189.172 298.384L186.328 307.853ZM189.564 303.352L190.442 300.429L192.273 300.978C192.739 301.118 193.072 301.362 193.273 301.708C193.473 302.055 193.506 302.453 193.371 302.902C193.239 303.342 192.992 303.656 192.631 303.843C192.273 304.022 191.86 304.042 191.394 303.902L189.564 303.352ZM195.724 310.676L197.453 311.195L199.423 304.637L201.152 309.535L201.356 309.596L205.447 306.585L203.515 313.016L205.256 313.539L208.101 304.07L206.449 303.574L202.09 306.921L200.221 301.703L198.569 301.207L195.724 310.676ZM208.224 314.43L214.515 316.32L214.973 314.795L210.411 313.425L211.151 310.959L215.46 312.253L215.918 310.728L211.609 309.434L212.339 307.006L216.901 308.377L217.359 306.852L211.068 304.962L208.224 314.43ZM216.938 317.048L218.666 317.567L220.526 311.378L223.166 318.919L224.526 319.328L227.37 309.859L225.641 309.34L223.816 315.415L221.13 307.984L219.782 307.58L216.938 317.048ZM229.191 320.729L230.933 321.252L233.319 313.309L235.734 314.034L236.192 312.509L229.583 310.524L229.125 312.049L231.578 312.786L229.191 320.729ZM238.972 323.667L240.7 324.187L243.545 314.718L241.816 314.199L238.972 323.667ZM243.677 325.081L245.405 325.6L247.265 319.41L249.905 326.952L251.265 327.36L254.109 317.892L252.38 317.372L250.555 323.447L247.869 316.017L246.521 315.612L243.677 325.081ZM258.655 329.747C259.333 329.95 259.973 330.018 260.576 329.949C261.187 329.883 261.735 329.72 262.22 329.459C262.707 329.19 263.098 328.855 263.394 328.454L262.061 327.264C261.733 327.683 261.309 327.985 260.791 328.171C260.284 328.352 259.73 328.351 259.129 328.171C258.536 327.992 258.057 327.696 257.691 327.282C257.326 326.867 257.091 326.376 256.984 325.808C256.88 325.232 256.927 324.613 257.126 323.952C257.324 323.291 257.624 322.753 258.026 322.338C258.431 321.915 258.898 321.635 259.429 321.499C259.962 321.354 260.525 321.371 261.118 321.549C261.719 321.73 262.181 322.039 262.502 322.477C262.834 322.91 263.022 323.391 263.066 323.922L264.834 323.663C264.808 323.165 264.664 322.674 264.403 322.19C264.145 321.696 263.779 321.254 263.306 320.862C262.841 320.473 262.269 320.177 261.591 319.973C260.913 319.769 260.25 319.704 259.6 319.776C258.952 319.841 258.35 320.029 257.794 320.343C257.241 320.648 256.755 321.065 256.337 321.595C255.922 322.117 255.609 322.73 255.397 323.433C255.186 324.136 255.109 324.824 255.165 325.497C255.224 326.162 255.399 326.778 255.691 327.346C255.982 327.913 256.379 328.407 256.881 328.826C257.386 329.236 257.977 329.543 258.655 329.747Z" fill="#18181B"/>
<path d="M357.995 154.006L360.657 154.806L371.376 141.399L368.733 140.604L357.995 154.006Z" fill="#F43F5E"/>
<path d="M372.089 157.434L374.603 158.189L376.13 153.106L378.496 153.816L379.816 159.755L382.663 160.611L381.162 154.133C382.023 154.043 382.775 153.731 383.418 153.199C384.074 152.67 384.545 151.932 384.83 150.983C385.111 150.046 385.145 149.196 384.931 148.433C384.716 147.67 384.296 147.013 383.669 146.462C383.057 145.902 382.283 145.481 381.347 145.2L376.226 143.662L372.089 157.434ZM376.797 150.887L378.074 146.635L380.717 147.429C381.395 147.633 381.88 147.987 382.172 148.491C382.464 148.995 382.512 149.574 382.316 150.227C382.123 150.868 381.764 151.325 381.239 151.597C380.718 151.857 380.118 151.885 379.44 151.681L376.797 150.887ZM386.649 161.808L389.367 162.624L391.254 159.966L396.578 161.566L396.669 164.818L399.405 165.64L398.791 150.44L395.538 149.463L386.649 161.808ZM392.641 157.965L396.326 152.743L396.523 159.131L392.641 157.965ZM404.404 167.142L406.918 167.897L408.445 162.813L410.812 163.524L412.131 169.463L414.978 170.318L413.478 163.841C414.338 163.75 415.09 163.439 415.734 162.906C416.389 162.378 416.86 161.639 417.145 160.69C417.426 159.754 417.46 158.904 417.246 158.141C417.032 157.378 416.611 156.721 415.984 156.169C415.373 155.61 414.599 155.189 413.662 154.908L408.541 153.369L404.404 167.142ZM409.112 160.595L410.389 156.343L413.033 157.137C413.71 157.341 414.195 157.695 414.487 158.199C414.779 158.703 414.827 159.282 414.631 159.935C414.438 160.576 414.079 161.032 413.554 161.305C413.033 161.564 412.433 161.593 411.755 161.389L409.112 160.595ZM420.092 171.854L429.243 174.603L429.909 172.385L423.273 170.391L424.35 166.805L430.617 168.688L431.284 166.469L425.017 164.587L426.077 161.056L432.714 163.049L433.38 160.831L424.23 158.082L420.092 171.854ZM434.553 176.199L440.358 177.942C441.898 178.405 443.211 178.396 444.296 177.916C445.397 177.427 446.145 176.523 446.541 175.205C446.73 174.576 446.784 173.947 446.705 173.319C446.625 172.69 446.336 172.086 445.838 171.507C446.324 171.276 446.716 170.978 447.014 170.61C447.325 170.247 447.551 169.831 447.692 169.363C448.054 168.155 447.951 167.089 447.382 166.166C446.813 165.242 445.851 164.577 444.495 164.17L438.69 162.426L434.553 176.199ZM439.599 168.524L440.56 165.326L443.98 166.353C444.498 166.509 444.868 166.774 445.091 167.15C445.314 167.526 445.353 167.955 445.209 168.435C445.064 168.916 444.792 169.264 444.391 169.48C443.994 169.683 443.537 169.707 443.019 169.551L439.599 168.524ZM437.733 174.735L438.939 170.724L442.488 171.79C443.141 171.986 443.603 172.327 443.874 172.811C444.161 173.287 444.212 173.833 444.027 174.449C443.846 175.053 443.502 175.481 442.997 175.732C442.507 175.975 441.936 175.998 441.283 175.802L437.733 174.735ZM450.801 181.079L459.212 183.606L459.878 181.388L453.981 179.616L457.452 168.062L454.938 167.307L450.801 181.079ZM470.661 187.288C471.684 187.595 472.687 187.701 473.669 187.607C474.652 187.512 475.566 187.243 476.411 186.798C477.257 186.353 477.988 185.753 478.605 184.998C479.237 184.234 479.706 183.347 480.009 182.336C480.316 181.313 480.415 180.315 480.304 179.341C480.206 178.371 479.925 177.474 479.46 176.649C479 175.812 478.385 175.083 477.618 174.463C476.85 173.843 475.955 173.379 474.932 173.071C473.909 172.764 472.906 172.658 471.924 172.752C470.942 172.847 470.028 173.116 469.182 173.561C468.352 173.997 467.623 174.591 466.994 175.343C466.377 176.098 465.915 176.987 465.608 178.01C465.305 179.021 465.2 180.017 465.295 180.999C465.405 181.973 465.691 182.879 466.151 183.716C466.612 184.553 467.226 185.281 467.994 185.902C468.762 186.522 469.651 186.984 470.661 187.288ZM471.35 184.995C470.463 184.729 469.724 184.278 469.136 183.645C468.559 183.015 468.177 182.275 467.988 181.426C467.8 180.576 467.845 179.69 468.122 178.765C468.4 177.841 468.85 177.082 469.471 176.49C470.096 175.885 470.823 175.478 471.651 175.27C472.492 175.066 473.356 175.097 474.243 175.364C475.143 175.634 475.881 176.084 476.458 176.714C477.034 177.344 477.417 178.084 477.605 178.933C477.797 179.77 477.754 180.651 477.477 181.575C477.199 182.5 476.747 183.264 476.122 183.869C475.497 184.474 474.77 184.881 473.942 185.089C473.114 185.297 472.25 185.265 471.35 184.995ZM490.043 193.11C491.029 193.406 491.96 193.504 492.837 193.405C493.725 193.309 494.522 193.072 495.227 192.692C495.936 192.3 496.506 191.813 496.936 191.23L494.998 189.499C494.519 190.108 493.903 190.548 493.15 190.818C492.413 191.081 491.607 191.08 490.732 190.818C489.869 190.558 489.172 190.127 488.641 189.524C488.11 188.922 487.767 188.207 487.612 187.381C487.461 186.543 487.53 185.643 487.818 184.682C488.107 183.721 488.544 182.938 489.128 182.334C489.716 181.718 490.396 181.311 491.168 181.113C491.943 180.903 492.762 180.927 493.625 181.186C494.5 181.449 495.171 181.899 495.638 182.537C496.121 183.165 496.394 183.866 496.458 184.637L499.03 184.261C498.992 183.537 498.783 182.823 498.404 182.118C498.028 181.4 497.496 180.757 496.807 180.187C496.131 179.621 495.3 179.19 494.314 178.894C493.328 178.598 492.362 178.502 491.417 178.608C490.475 178.701 489.6 178.976 488.791 179.432C487.986 179.875 487.279 180.482 486.672 181.254C486.067 182.013 485.612 182.904 485.304 183.927C484.997 184.95 484.884 185.95 484.967 186.929C485.053 187.896 485.307 188.792 485.731 189.618C486.155 190.444 486.732 191.161 487.463 191.77C488.197 192.367 489.057 192.814 490.043 193.11ZM501.422 196.286L503.936 197.042L505.097 193.178L507.606 191.533L509.482 198.708L512.44 199.596L509.942 189.998L516.411 185.774L513.25 184.824L506.235 189.388L508.073 183.269L505.559 182.514L501.422 196.286ZM522.105 202.742C523.054 203.027 523.938 203.104 524.756 202.974C525.575 202.843 526.278 202.537 526.866 202.056C527.454 201.574 527.867 200.939 528.104 200.15C528.656 198.314 527.94 196.715 525.957 195.353L523.664 193.797C523.219 193.489 522.909 193.154 522.736 192.793C522.578 192.423 522.557 192.047 522.671 191.665C522.823 191.16 523.136 190.811 523.611 190.617C524.102 190.415 524.667 190.411 525.308 190.603C526.023 190.818 526.594 191.198 527.022 191.743C527.453 192.275 527.701 192.927 527.764 193.699L530.112 193.397C530.054 192.25 529.657 191.224 528.921 190.318C528.198 189.415 527.214 188.777 525.969 188.403C525.07 188.133 524.217 188.065 523.41 188.199C522.62 188.324 521.937 188.63 521.362 189.115C520.798 189.604 520.398 190.243 520.161 191.032C519.891 191.932 519.927 192.796 520.269 193.624C520.615 194.44 521.272 195.182 522.241 195.849L524.629 197.494C525.062 197.798 525.356 198.115 525.513 198.444C525.681 198.777 525.705 199.147 525.582 199.554C525.431 200.059 525.105 200.404 524.606 200.59C524.119 200.78 523.549 200.777 522.896 200.581C522.107 200.344 521.465 199.909 520.97 199.276C520.478 198.632 520.184 197.865 520.089 196.976L517.727 197.254C517.744 198.093 517.931 198.881 518.287 199.619C518.659 200.349 519.166 200.985 519.81 201.528C520.465 202.074 521.23 202.479 522.105 202.742Z" fill="#18181B"/>
<defs>
<filter id="filter0_f_5_351" x="23.6482" y="0.525497" width="589.293" height="477.526" filterUnits="userSpaceOnUse" color-interpolation-filters="sRGB">
<feFlood flood-opacity="0" result="BackgroundImageFix"/>
<feBlend mode="normal" in="SourceGraphic" in2="BackgroundImageFix" result="shape"/>
<feGaussianBlur stdDeviation="42.2244" result="effect1_foregroundBlur_5_351"/>
</filter>
<filter id="filter1_d_5_351" x="0.473534" y="23.6787" width="636.793" height="529.287" filterUnits="userSpaceOnUse" color-interpolation-filters="sRGB">
<feFlood flood-opacity="0" result="BackgroundImageFix"/>
<feColorMatrix in="SourceAlpha" type="matrix" values="0 0 0 0 0 0 0 0 0 0 0 0 0 0 0 0 0 0 127 0" result="hardAlpha"/>
<feOffset dy="51.2051"/>
<feGaussianBlur stdDeviation="36.9815"/>
<feComposite in2="hardAlpha" operator="out"/>
<feColorMatrix type="matrix" values="0 0 0 0 0.1375 0 0 0 0 0.155242 0 0 0 0 0.4125 0 0 0 0.08 0"/>
<feBlend mode="normal" in2="BackgroundImageFix" result="effect1_dropShadow_5_351"/>
<feBlend mode="normal" in="SourceGraphic" in2="effect1_dropShadow_5_351" result="shape"/>
</filter>
<filter id="filter2_f_5_351" x="-319.53" y="-399.958" width="950.71" height="950.71" filterUnits="userSpaceOnUse" color-interpolation-filters="sRGB">
<feFlood flood-opacity="0" result="BackgroundImageFix"/>
<feBlend mode="normal" in="SourceGraphic" in2="BackgroundImageFix" result="shape"/>
<feGaussianBlur stdDeviation="183.375" result="effect1_foregroundBlur_5_351"/>
</filter>
<filter id="filter3_f_5_351" x="3.78079" y="-67.2752" width="950.71" height="950.71" filterUnits="userSpaceOnUse" color-interpolation-filters="sRGB">
<feFlood flood-opacity="0" result="BackgroundImageFix"/>
<feBlend mode="normal" in="SourceGraphic" in2="BackgroundImageFix" result="shape"/>
<feGaussianBlur stdDeviation="183.375" result="effect1_foregroundBlur_5_351"/>
</filter>
<linearGradient id="paint0_linear_5_351" x1="166.245" y1="189.613" x2="541.921" y2="189.613" gradientUnits="userSpaceOnUse">
<stop stop-color="#44BCFF"/>
<stop offset="0.234375" stop-color="#44B0FF"/>
<stop offset="0.489583" stop-color="#FF44EC"/>
<stop offset="0.739583" stop-color="#FF44EC"/>
<stop offset="1" stop-color="#FF675E"/>
</linearGradient>
<linearGradient id="paint1_linear_5_351" x1="446.864" y1="318.268" x2="134.403" y2="21.491" gradientUnits="userSpaceOnUse">
<stop offset="0.507336" stop-color="white"/>
<stop offset="1" stop-color="white" stop-opacity="0"/>
</linearGradient>
<linearGradient id="paint2_linear_5_351" x1="181.023" y1="157.158" x2="158.688" y2="231.508" gradientUnits="userSpaceOnUse">
<stop stop-color="#F3EC58"/>
<stop offset="0.4" stop-color="#F6CA45"/>
<stop offset="0.77" stop-color="#F9B036"/>
<stop offset="1" stop-color="#FAA631"/>
</linearGradient>
</defs>
</svg>
