<svg width="361" height="280" viewBox="0 0 361 280" fill="none" xmlns="http://www.w3.org/2000/svg">
<g filter="url(#filter0_b_5_10994)">
<rect width="361" height="280" rx="10" fill="black" fill-opacity="0.85"/>
</g>
<mask id="mask0_5_10994" style="mask-type:alpha" maskUnits="userSpaceOnUse" x="0" y="0" width="361" height="280">
<rect width="361" height="280" rx="10" fill="#FBD4D4"/>
</mask>
<g mask="url(#mask0_5_10994)">
<g filter="url(#filter1_f_5_10994)">
<circle cx="337" cy="249" r="95" fill="#45FFBC" fill-opacity="0.28"/>
</g>
</g>
<path d="M25.8608 25.2727V34H27.3778V27.9915H27.4588L29.8707 33.9744H31.0043L33.4162 28.0043H33.4972V34H35.0142V25.2727H33.0795L30.4886 31.5966H30.3864L27.7955 25.2727H25.8608ZM45.5341 29.6364C45.5341 26.8153 43.8125 25.1534 41.5241 25.1534C39.2315 25.1534 37.5142 26.8153 37.5142 29.6364C37.5142 32.4531 39.2315 34.1193 41.5241 34.1193C43.8125 34.1193 45.5341 32.4574 45.5341 29.6364ZM43.9446 29.6364C43.9446 31.6222 42.9474 32.7003 41.5241 32.7003C40.1051 32.7003 39.1037 31.6222 39.1037 29.6364C39.1037 27.6506 40.1051 26.5724 41.5241 26.5724C42.9474 26.5724 43.9446 27.6506 43.9446 29.6364ZM48.7276 25.2727H46.9933L50.0657 34H52.0174L55.0941 25.2727H53.3555L51.0884 32.142H50.9989L48.7276 25.2727ZM58.8246 25.2727H57.2436V34H58.8246V25.2727ZM61.5366 34H67.2468V32.6747H63.1175V30.2926H66.9187V28.9673H63.1175V26.598H67.2127V25.2727H61.5366V34ZM73.4187 26.598H76.1161V34H77.6843V26.598H80.3817V25.2727H73.4187V26.598ZM84.305 25.2727H82.7241V34H84.305V25.2727ZM86.6335 26.598H89.331V34H90.8991V26.598H93.5966V25.2727H86.6335V26.598ZM95.9389 34H101.364V32.6747H97.5199V25.2727H95.9389V34ZM103.736 34H109.446V32.6747H105.317V30.2926H109.118V28.9673H105.317V26.598H109.412V25.2727H103.736V34Z" fill="white"/>
<path d="M195.707 28.0597C195.636 27.8295 195.538 27.6236 195.413 27.4418C195.291 27.2571 195.143 27.0994 194.97 26.9688C194.8 26.8381 194.604 26.7401 194.382 26.6747C194.161 26.6065 193.919 26.5724 193.658 26.5724C193.189 26.5724 192.771 26.6903 192.405 26.9261C192.038 27.1619 191.75 27.5085 191.54 27.9659C191.332 28.4205 191.229 28.9744 191.229 29.6278C191.229 30.2869 191.332 30.8452 191.54 31.3026C191.747 31.7599 192.036 32.108 192.405 32.3466C192.774 32.5824 193.203 32.7003 193.692 32.7003C194.135 32.7003 194.518 32.6151 194.842 32.4446C195.169 32.2741 195.42 32.0327 195.597 31.7202C195.773 31.4048 195.861 31.0355 195.861 30.6122L196.219 30.6676H193.849V29.4318H197.391V30.4801C197.391 31.2273 197.232 31.8736 196.913 32.419C196.595 32.9645 196.158 33.3849 195.601 33.6804C195.044 33.973 194.405 34.1193 193.683 34.1193C192.879 34.1193 192.173 33.9389 191.565 33.5781C190.96 33.2145 190.487 32.6989 190.146 32.0312C189.808 31.3608 189.639 30.5653 189.639 29.6449C189.639 28.9403 189.739 28.3111 189.938 27.7571C190.139 27.2031 190.42 26.733 190.781 26.3466C191.142 25.9574 191.565 25.6619 192.051 25.4602C192.537 25.2557 193.065 25.1534 193.636 25.1534C194.119 25.1534 194.57 25.2244 194.987 25.3665C195.405 25.5057 195.776 25.7045 196.099 25.9631C196.426 26.2216 196.695 26.5284 196.905 26.8835C197.115 27.2386 197.253 27.6307 197.318 28.0597H195.707ZM199.919 34V25.2727H205.596V26.598H201.5V28.9673H205.301V30.2926H201.5V32.6747H205.63V34H199.919ZM215.38 25.2727V34H213.974L209.862 28.0554H209.789V34H208.208V25.2727H209.623L213.731 31.2216H213.808V25.2727H215.38ZM218.103 34V25.2727H221.376C222.046 25.2727 222.609 25.3892 223.063 25.6222C223.521 25.8551 223.866 26.1818 224.099 26.6023C224.335 27.0199 224.452 27.5071 224.452 28.0639C224.452 28.6236 224.333 29.1094 224.094 29.5213C223.859 29.9304 223.511 30.2472 223.05 30.4716C222.59 30.6932 222.025 30.804 221.354 30.804H219.023V29.4915H221.141C221.533 29.4915 221.854 29.4375 222.104 29.3295C222.354 29.2187 222.539 29.0582 222.658 28.848C222.781 28.6349 222.842 28.3736 222.842 28.0639C222.842 27.7543 222.781 27.4901 222.658 27.2713C222.536 27.0497 222.35 26.8821 222.1 26.7685C221.85 26.652 221.528 26.5938 221.133 26.5938H219.684V34H218.103ZM222.612 30.0455L224.772 34H223.008L220.886 30.0455H222.612ZM226.908 34V25.2727H232.584V26.598H228.489V28.9673H232.29V30.2926H228.489V32.6747H232.618V34H226.908Z" fill="white"/>
<path d="M294.264 25.2727H296.05L298.185 29.1335H298.27L300.405 25.2727H302.19L299.016 30.7443V34H297.439V30.7443L294.264 25.2727ZM304.31 34V25.2727H309.986V26.598H305.891V28.9673H309.692V30.2926H305.891V32.6747H310.02V34H304.31ZM313.72 34H312.032L315.105 25.2727H317.056L320.133 34H318.446L316.115 27.0625H316.047L313.72 34ZM313.775 30.5781H318.377V31.848H313.775V30.5781ZM322.283 34V25.2727H325.555C326.226 25.2727 326.788 25.3892 327.243 25.6222C327.7 25.8551 328.045 26.1818 328.278 26.6023C328.514 27.0199 328.632 27.5071 328.632 28.0639C328.632 28.6236 328.513 29.1094 328.274 29.5213C328.038 29.9304 327.69 30.2472 327.23 30.4716C326.77 30.6932 326.205 30.804 325.534 30.804H323.203V29.4915H325.321C325.713 29.4915 326.034 29.4375 326.284 29.3295C326.534 29.2187 326.719 29.0582 326.838 28.848C326.96 28.6349 327.021 28.3736 327.021 28.0639C327.021 27.7543 326.96 27.4901 326.838 27.2713C326.716 27.0497 326.53 26.8821 326.28 26.7685C326.03 26.652 325.707 26.5938 325.312 26.5938H323.864V34H322.283ZM326.791 30.0455L328.952 34H327.188L325.065 30.0455H326.791Z" fill="white"/>
<path d="M32.7727 81.2727H34.1364C34.0739 79.517 32.4545 78.2045 30.2045 78.2045C27.9773 78.2045 26.2273 79.5 26.2273 81.4545C26.2273 83.0227 27.3636 83.9545 29.1818 84.4773L30.6136 84.8864C31.8409 85.2273 32.9318 85.6591 32.9318 86.8182C32.9318 88.0909 31.7045 88.9318 30.0909 88.9318C28.7045 88.9318 27.4773 88.3182 27.3636 87H25.9091C26.0455 88.9091 27.5909 90.2045 30.0909 90.2045C32.7727 90.2045 34.2955 88.7273 34.2955 86.8409C34.2955 84.6591 32.2273 83.9545 31.0227 83.6364L29.8409 83.3182C28.9773 83.0909 27.5909 82.6364 27.5909 81.3864C27.5909 80.2727 28.6136 79.4545 30.1591 79.4545C31.5682 79.4545 32.6364 80.125 32.7727 81.2727ZM40.2259 81.2727H38.3622V79.1818H37.0213V81.2727H35.7031V82.4091H37.0213V87.8636C37.0213 89.3864 38.2486 90.1136 39.3849 90.1136C39.8849 90.1136 40.2031 90.0227 40.3849 89.9545L40.1122 88.75C39.9986 88.7727 39.8168 88.8182 39.5213 88.8182C38.9304 88.8182 38.3622 88.6364 38.3622 87.5V82.4091H40.2259V81.2727ZM44.8111 90.2045C46.3338 90.2045 47.1293 89.3864 47.402 88.8182H47.4702V90H48.8111V84.25C48.8111 81.4773 46.6974 81.1591 45.5838 81.1591C44.2656 81.1591 42.7656 81.6136 42.0838 83.2045L43.3565 83.6591C43.652 83.0227 44.3509 82.3409 45.6293 82.3409C46.8622 82.3409 47.4702 82.9943 47.4702 84.1136V84.1591C47.4702 84.8068 46.8111 84.75 45.2202 84.9545C43.6009 85.1648 41.8338 85.5227 41.8338 87.5227C41.8338 89.2273 43.152 90.2045 44.8111 90.2045ZM45.0156 89C43.9474 89 43.1747 88.5227 43.1747 87.5909C43.1747 86.5682 44.1065 86.25 45.152 86.1136C45.7202 86.0455 47.2429 85.8864 47.4702 85.6136V86.8409C47.4702 87.9318 46.6065 89 45.0156 89ZM51.2585 90H52.5994V84.4773C52.5994 83.2955 53.5312 82.4318 54.804 82.4318C55.1619 82.4318 55.5312 82.5 55.6222 82.5227V81.1591C55.4688 81.1477 55.1165 81.1364 54.9176 81.1364C53.8722 81.1364 52.9631 81.7273 52.6449 82.5909H52.554V81.2727H51.2585V90ZM64.0071 90H65.4616L68.0298 80.7273H68.1207L70.6889 90H72.1435L75.3253 78.3636H73.8935L71.4616 87.8409H71.348L68.8707 78.3636H67.2798L64.8026 87.8409H64.6889L62.2571 78.3636H60.8253L64.0071 90ZM78.6548 90.2045C80.1776 90.2045 80.973 89.3864 81.2457 88.8182H81.3139V90H82.6548V84.25C82.6548 81.4773 80.5412 81.1591 79.4276 81.1591C78.1094 81.1591 76.6094 81.6136 75.9276 83.2045L77.2003 83.6591C77.4957 83.0227 78.1946 82.3409 79.473 82.3409C80.706 82.3409 81.3139 82.9943 81.3139 84.1136V84.1591C81.3139 84.8068 80.6548 84.75 79.0639 84.9545C77.4446 85.1648 75.6776 85.5227 75.6776 87.5227C75.6776 89.2273 76.9957 90.2045 78.6548 90.2045ZM78.8594 89C77.7912 89 77.0185 88.5227 77.0185 87.5909C77.0185 86.5682 77.9503 86.25 78.9957 86.1136C79.5639 86.0455 81.0866 85.8864 81.3139 85.6136V86.8409C81.3139 87.9318 80.4503 89 78.8594 89ZM85.1023 90H86.4432V84.4773C86.4432 83.2955 87.375 82.4318 88.6477 82.4318C89.0057 82.4318 89.375 82.5 89.4659 82.5227V81.1591C89.3125 81.1477 88.9602 81.1364 88.7614 81.1364C87.7159 81.1364 86.8068 81.7273 86.4886 82.5909H86.3977V81.2727H85.1023V90ZM97.2372 83.2273C96.8168 81.9886 95.8736 81.1591 94.1463 81.1591C92.3054 81.1591 90.9418 82.2045 90.9418 83.6818C90.9418 84.8864 91.6577 85.6932 93.2599 86.0682L94.7145 86.4091C95.5952 86.6136 96.0099 87.0341 96.0099 87.6364C96.0099 88.3864 95.2145 89 93.9645 89C92.8679 89 92.1804 88.5284 91.9418 87.5909L90.669 87.9091C90.9815 89.392 92.2031 90.1818 93.9872 90.1818C96.0156 90.1818 97.3963 89.0739 97.3963 87.5682C97.3963 86.3523 96.6349 85.5852 95.0781 85.2045L93.7827 84.8864C92.7486 84.6307 92.2827 84.2841 92.2827 83.6136C92.2827 82.8636 93.0781 82.3182 94.1463 82.3182C95.3168 82.3182 95.7997 82.9659 96.0327 83.5682L97.2372 83.2273Z" fill="white"/>
<path d="M190.886 90H189.409L193.682 78.3636H195.136L199.409 90H197.932L194.455 80.2045H194.364L190.886 90ZM191.432 85.4545H197.386V86.7045H191.432V85.4545ZM204.335 90.1818C203.608 90.1818 202.966 89.9981 202.409 89.6307C201.852 89.2595 201.417 88.7367 201.102 88.0625C200.788 87.3845 200.631 86.5833 200.631 85.6591C200.631 84.7424 200.788 83.947 201.102 83.2727C201.417 82.5985 201.854 82.0777 202.415 81.7102C202.975 81.3428 203.623 81.1591 204.358 81.1591C204.926 81.1591 205.375 81.2538 205.705 81.4432C206.038 81.6288 206.292 81.8409 206.466 82.0795C206.644 82.3144 206.782 82.5076 206.881 82.6591H206.994V78.3636H208.335V90H207.04V88.6591H206.881C206.782 88.8182 206.642 89.0189 206.46 89.2614C206.278 89.5 206.019 89.714 205.682 89.9034C205.345 90.089 204.896 90.1818 204.335 90.1818ZM204.517 88.9773C205.055 88.9773 205.509 88.8371 205.881 88.5568C206.252 88.2727 206.534 87.8807 206.727 87.3807C206.92 86.8769 207.017 86.2955 207.017 85.6364C207.017 84.9848 206.922 84.4148 206.733 83.9261C206.544 83.4337 206.263 83.0511 205.892 82.7784C205.521 82.5019 205.063 82.3636 204.517 82.3636C203.949 82.3636 203.475 82.5095 203.097 82.8011C202.722 83.089 202.439 83.4811 202.25 83.9773C202.064 84.4697 201.972 85.0227 201.972 85.6364C201.972 86.2576 202.066 86.822 202.256 87.3295C202.449 87.8333 202.733 88.2348 203.108 88.5341C203.487 88.8295 203.956 88.9773 204.517 88.9773ZM218.114 81.2727L214.886 90H213.523L210.295 81.2727H211.75L214.159 88.2273H214.25L216.659 81.2727H218.114ZM223.23 90.1818C222.389 90.1818 221.664 89.9962 221.054 89.625C220.448 89.25 219.98 88.7273 219.651 88.0568C219.325 87.3826 219.162 86.5985 219.162 85.7045C219.162 84.8106 219.325 84.0227 219.651 83.3409C219.98 82.6553 220.438 82.1212 221.026 81.7386C221.616 81.3523 222.306 81.1591 223.094 81.1591C223.548 81.1591 223.997 81.2348 224.44 81.3864C224.884 81.5379 225.287 81.7841 225.651 82.125C226.014 82.4621 226.304 82.9091 226.52 83.4659C226.736 84.0227 226.844 84.7083 226.844 85.5227V86.0909H220.116V84.9318H225.48C225.48 84.4394 225.382 84 225.185 83.6136C224.991 83.2273 224.715 82.9223 224.355 82.6989C223.999 82.4754 223.579 82.3636 223.094 82.3636C222.56 82.3636 222.098 82.4962 221.707 82.7614C221.321 83.0227 221.024 83.3636 220.815 83.7841C220.607 84.2045 220.503 84.6553 220.503 85.1364V85.9091C220.503 86.5682 220.616 87.1269 220.844 87.5852C221.075 88.0398 221.395 88.3864 221.804 88.625C222.213 88.8598 222.688 88.9773 223.23 88.9773C223.582 88.9773 223.901 88.928 224.185 88.8295C224.473 88.7273 224.721 88.5758 224.929 88.375C225.137 88.1705 225.298 87.9167 225.412 87.6136L226.707 87.9773C226.571 88.4167 226.342 88.803 226.02 89.1364C225.698 89.4659 225.3 89.7235 224.827 89.9091C224.353 90.0909 223.821 90.1818 223.23 90.1818ZM230.224 84.75V90H228.884V81.2727H230.179V82.6364H230.293C230.497 82.1932 230.808 81.8371 231.224 81.5682C231.641 81.2955 232.179 81.1591 232.838 81.1591C233.429 81.1591 233.946 81.2803 234.389 81.5227C234.832 81.7614 235.177 82.125 235.423 82.6136C235.67 83.0985 235.793 83.7121 235.793 84.4545V90H234.452V84.5455C234.452 83.8598 234.274 83.3258 233.918 82.9432C233.562 82.5568 233.073 82.3636 232.452 82.3636C232.024 82.3636 231.641 82.4564 231.304 82.642C230.971 82.8277 230.707 83.0985 230.514 83.4545C230.321 83.8106 230.224 84.2424 230.224 84.75ZM242.038 81.2727V82.4091H237.516V81.2727H242.038ZM238.834 79.1818H240.175V87.5C240.175 87.8788 240.23 88.1629 240.339 88.3523C240.453 88.5379 240.597 88.6629 240.771 88.7273C240.949 88.7879 241.137 88.8182 241.334 88.8182C241.482 88.8182 241.603 88.8106 241.697 88.7955C241.792 88.7765 241.868 88.7614 241.925 88.75L242.197 89.9545C242.107 89.9886 241.98 90.0227 241.817 90.0568C241.654 90.0947 241.447 90.1136 241.197 90.1136C240.819 90.1136 240.447 90.0322 240.084 89.8693C239.724 89.7064 239.425 89.4583 239.186 89.125C238.951 88.7917 238.834 88.3712 238.834 87.8636V79.1818ZM249.555 86.4318V81.2727H250.896V90H249.555V88.5227H249.464C249.26 88.9659 248.942 89.3428 248.51 89.6534C248.078 89.9602 247.533 90.1136 246.874 90.1136C246.328 90.1136 245.843 89.9943 245.419 89.7557C244.995 89.5133 244.661 89.1496 244.419 88.6648C244.177 88.1761 244.055 87.5606 244.055 86.8182V81.2727H245.396V86.7273C245.396 87.3636 245.574 87.8712 245.93 88.25C246.29 88.6288 246.749 88.8182 247.305 88.8182C247.639 88.8182 247.978 88.733 248.322 88.5625C248.671 88.392 248.963 88.1307 249.197 87.7784C249.436 87.4261 249.555 86.9773 249.555 86.4318ZM253.352 90V81.2727H254.648V82.5909H254.739C254.898 82.1591 255.186 81.8087 255.602 81.5398C256.019 81.2708 256.489 81.1364 257.011 81.1364C257.11 81.1364 257.233 81.1383 257.381 81.142C257.528 81.1458 257.64 81.1515 257.716 81.1591V82.5227C257.67 82.5114 257.566 82.4943 257.403 82.4716C257.244 82.4451 257.076 82.4318 256.898 82.4318C256.473 82.4318 256.095 82.5208 255.761 82.6989C255.432 82.8731 255.17 83.1155 254.977 83.4261C254.788 83.733 254.693 84.0833 254.693 84.4773V90H253.352ZM262.699 90.1818C261.858 90.1818 261.133 89.9962 260.523 89.625C259.917 89.25 259.449 88.7273 259.119 88.0568C258.794 87.3826 258.631 86.5985 258.631 85.7045C258.631 84.8106 258.794 84.0227 259.119 83.3409C259.449 82.6553 259.907 82.1212 260.494 81.7386C261.085 81.3523 261.775 81.1591 262.562 81.1591C263.017 81.1591 263.466 81.2348 263.909 81.3864C264.352 81.5379 264.756 81.7841 265.119 82.125C265.483 82.4621 265.773 82.9091 265.989 83.4659C266.205 84.0227 266.312 84.7083 266.312 85.5227V86.0909H259.585V84.9318H264.949C264.949 84.4394 264.85 84 264.653 83.6136C264.46 83.2273 264.184 82.9223 263.824 82.6989C263.468 82.4754 263.047 82.3636 262.562 82.3636C262.028 82.3636 261.566 82.4962 261.176 82.7614C260.79 83.0227 260.492 83.3636 260.284 83.7841C260.076 84.2045 259.972 84.6553 259.972 85.1364V85.9091C259.972 86.5682 260.085 87.1269 260.312 87.5852C260.544 88.0398 260.864 88.3864 261.273 88.625C261.682 88.8598 262.157 88.9773 262.699 88.9773C263.051 88.9773 263.369 88.928 263.653 88.8295C263.941 88.7273 264.189 88.5758 264.398 88.375C264.606 88.1705 264.767 87.9167 264.881 87.6136L266.176 87.9773C266.04 88.4167 265.811 88.803 265.489 89.1364C265.167 89.4659 264.769 89.7235 264.295 89.9091C263.822 90.0909 263.29 90.1818 262.699 90.1818Z" fill="white"/>
<path d="M299.295 78.3636V90H297.886V79.8409H297.818L294.977 81.7273V80.2955L297.886 78.3636H299.295ZM306.347 78.2045C306.824 78.2083 307.301 78.2992 307.778 78.4773C308.256 78.6553 308.691 78.9508 309.085 79.3636C309.479 79.7727 309.795 80.3314 310.034 81.0398C310.273 81.7481 310.392 82.6364 310.392 83.7045C310.392 84.7386 310.294 85.6572 310.097 86.4602C309.903 87.2595 309.623 87.9337 309.256 88.483C308.892 89.0322 308.449 89.4489 307.926 89.733C307.407 90.017 306.82 90.1591 306.165 90.1591C305.513 90.1591 304.932 90.0303 304.42 89.7727C303.913 89.5114 303.496 89.1496 303.17 88.6875C302.848 88.2216 302.642 87.6818 302.551 87.0682H303.938C304.062 87.6023 304.311 88.0436 304.682 88.392C305.057 88.7367 305.551 88.9091 306.165 88.9091C307.063 88.9091 307.771 88.517 308.29 87.733C308.813 86.9489 309.074 85.8409 309.074 84.4091H308.983C308.771 84.7273 308.519 85.0019 308.227 85.233C307.936 85.464 307.612 85.642 307.256 85.767C306.9 85.892 306.521 85.9545 306.119 85.9545C305.453 85.9545 304.841 85.7898 304.284 85.4602C303.731 85.1269 303.288 84.6705 302.955 84.0909C302.625 83.5076 302.46 82.8409 302.46 82.0909C302.46 81.3788 302.619 80.7273 302.938 80.1364C303.259 79.5417 303.71 79.0682 304.29 78.7159C304.873 78.3636 305.559 78.1932 306.347 78.2045ZM306.347 79.4545C305.869 79.4545 305.439 79.5739 305.057 79.8125C304.678 80.0473 304.377 80.3655 304.153 80.767C303.934 81.1648 303.824 81.6061 303.824 82.0909C303.824 82.5758 303.93 83.017 304.142 83.4148C304.358 83.8087 304.652 84.1231 305.023 84.358C305.398 84.589 305.824 84.7045 306.301 84.7045C306.661 84.7045 306.996 84.6345 307.307 84.4943C307.617 84.3504 307.888 84.1553 308.119 83.9091C308.354 83.6591 308.538 83.3769 308.67 83.0625C308.803 82.7443 308.869 82.4129 308.869 82.0682C308.869 81.6136 308.759 81.1875 308.54 80.7898C308.324 80.392 308.025 80.0701 307.642 79.8239C307.263 79.5777 306.831 79.4545 306.347 79.4545ZM312.678 90L317.882 79.7045V79.6136H311.882V78.3636H319.337V79.6818L314.155 90H312.678ZM322.131 90L327.335 79.7045V79.6136H321.335V78.3636H328.79V79.6818L323.608 90H322.131Z" fill="white"/>
<path d="M26.4091 123H27.8182V117.795H34.0227V123H35.4318V111.364H34.0227V116.545H27.8182V111.364H26.4091V123ZM41.6165 123.182C43.9801 123.182 45.571 121.386 45.571 118.682C45.571 115.955 43.9801 114.159 41.6165 114.159C39.2528 114.159 37.6619 115.955 37.6619 118.682C37.6619 121.386 39.2528 123.182 41.6165 123.182ZM41.6165 121.977C39.821 121.977 39.0028 120.432 39.0028 118.682C39.0028 116.932 39.821 115.364 41.6165 115.364C43.4119 115.364 44.2301 116.932 44.2301 118.682C44.2301 120.432 43.4119 121.977 41.6165 121.977ZM49.2983 123H50.6165L52.5256 116.295H52.6619L54.571 123H55.8892L58.5483 114.273H57.1392L55.2528 120.932H55.1619L53.321 114.273H51.8892L50.0256 120.955H49.9347L48.0483 114.273H46.6392L49.2983 123ZM62.8892 123.205C64.4119 123.205 65.2074 122.386 65.4801 121.818H65.5483V123H66.8892V117.25C66.8892 114.477 64.7756 114.159 63.6619 114.159C62.3438 114.159 60.8438 114.614 60.1619 116.205L61.4347 116.659C61.7301 116.023 62.429 115.341 63.7074 115.341C64.9403 115.341 65.5483 115.994 65.5483 117.114V117.159C65.5483 117.807 64.8892 117.75 63.2983 117.955C61.679 118.165 59.9119 118.523 59.9119 120.523C59.9119 122.227 61.2301 123.205 62.8892 123.205ZM63.0938 122C62.0256 122 61.2528 121.523 61.2528 120.591C61.2528 119.568 62.1847 119.25 63.2301 119.114C63.7983 119.045 65.321 118.886 65.5483 118.614V119.841C65.5483 120.932 64.6847 122 63.0938 122ZM69.3366 123H70.6776V117.477C70.6776 116.295 71.6094 115.432 72.8821 115.432C73.2401 115.432 73.6094 115.5 73.7003 115.523V114.159C73.5469 114.148 73.1946 114.136 72.9957 114.136C71.9503 114.136 71.0412 114.727 70.723 115.591H70.6321V114.273H69.3366V123ZM78.3196 123.182C80.0014 123.182 80.5696 122.136 80.8651 121.659H81.0241V123H82.3196V111.364H80.9787V115.659H80.8651C80.5696 115.205 80.0469 114.159 78.3423 114.159C76.1378 114.159 74.6151 115.909 74.6151 118.659C74.6151 121.432 76.1378 123.182 78.3196 123.182ZM78.5014 121.977C76.8196 121.977 75.956 120.5 75.956 118.636C75.956 116.795 76.7969 115.364 78.5014 115.364C80.1378 115.364 81.0014 116.682 81.0014 118.636C81.0014 120.614 80.1151 121.977 78.5014 121.977ZM89.0071 112.614H92.6662V123H94.0753V112.614H97.7344V111.364H89.0071V112.614ZM101.068 117.75C101.068 116.227 102.04 115.364 103.364 115.364C104.625 115.364 105.386 116.159 105.386 117.545V123H106.727V117.455C106.727 115.21 105.534 114.159 103.75 114.159C102.375 114.159 101.591 114.733 101.182 115.636H101.068V111.364H99.7273V123H101.068V117.75ZM112.839 123.182C114.612 123.182 115.908 122.295 116.317 120.977L115.021 120.614C114.68 121.523 113.891 121.977 112.839 121.977C111.266 121.977 110.18 120.96 110.118 119.091H116.453V118.523C116.453 115.273 114.521 114.159 112.703 114.159C110.339 114.159 108.771 116.023 108.771 118.705C108.771 121.386 110.317 123.182 112.839 123.182ZM110.118 117.932C110.209 116.574 111.169 115.364 112.703 115.364C114.158 115.364 115.089 116.455 115.089 117.932H110.118ZM126.766 123C130.311 123 132.311 120.795 132.311 117.159C132.311 113.545 130.311 111.364 126.925 111.364H123.175V123H126.766ZM124.584 121.75V112.614H126.834C129.561 112.614 130.947 114.341 130.947 117.159C130.947 120 129.561 121.75 126.675 121.75H124.584ZM139.993 119.432C139.993 121.068 138.743 121.818 137.743 121.818C136.629 121.818 135.834 121 135.834 119.727V114.273H134.493V119.818C134.493 122.045 135.675 123.114 137.311 123.114C138.629 123.114 139.493 122.409 139.902 121.523H139.993V123H141.334V114.273H139.993V119.432ZM147.335 123.182C149.267 123.182 150.54 122 150.767 120.455H149.426C149.176 121.409 148.381 121.977 147.335 121.977C145.744 121.977 144.722 120.659 144.722 118.636C144.722 116.659 145.767 115.364 147.335 115.364C148.517 115.364 149.222 116.091 149.426 116.886H150.767C150.54 115.25 149.153 114.159 147.312 114.159C144.949 114.159 143.381 116.023 143.381 118.682C143.381 121.295 144.881 123.182 147.335 123.182ZM152.727 123H154.068V119.733L155.006 118.864L158.273 123H159.977L156.017 118L159.705 114.273H158.045L154.227 118.159H154.068V111.364H152.727V123Z" fill="white"/>
<path d="M199.773 115C199.341 112.614 197.432 111.205 195.091 111.205C192.114 111.205 189.955 113.5 189.955 117.182C189.955 120.864 192.114 123.159 195.091 123.159C197.432 123.159 199.341 121.75 199.773 119.364H198.364C198.023 120.977 196.636 121.841 195.091 121.841C192.977 121.841 191.318 120.205 191.318 117.182C191.318 114.159 192.977 112.523 195.091 112.523C196.636 112.523 198.023 113.386 198.364 115H199.773ZM205.413 123.182C207.777 123.182 209.368 121.386 209.368 118.682C209.368 115.955 207.777 114.159 205.413 114.159C203.05 114.159 201.459 115.955 201.459 118.682C201.459 121.386 203.05 123.182 205.413 123.182ZM205.413 121.977C203.618 121.977 202.8 120.432 202.8 118.682C202.8 116.932 203.618 115.364 205.413 115.364C207.209 115.364 208.027 116.932 208.027 118.682C208.027 120.432 207.209 121.977 205.413 121.977ZM211.415 123H212.756V117.545C212.756 116.267 213.688 115.364 214.733 115.364C215.75 115.364 216.46 116.028 216.46 117.023V123H217.824V117.318C217.824 116.193 218.528 115.364 219.756 115.364C220.71 115.364 221.528 115.869 221.528 117.159V123H222.869V117.159C222.869 115.108 221.767 114.159 220.21 114.159C218.96 114.159 218.045 114.733 217.597 115.636H217.506C217.074 114.705 216.312 114.159 215.165 114.159C214.028 114.159 213.188 114.705 212.824 115.636H212.71V114.273H211.415V123ZM228.98 123.182C230.753 123.182 232.048 122.295 232.457 120.977L231.162 120.614C230.821 121.523 230.031 121.977 228.98 121.977C227.406 121.977 226.321 120.96 226.259 119.091H232.594V118.523C232.594 115.273 230.662 114.159 228.844 114.159C226.48 114.159 224.912 116.023 224.912 118.705C224.912 121.386 226.457 123.182 228.98 123.182ZM226.259 117.932C226.349 116.574 227.31 115.364 228.844 115.364C230.298 115.364 231.23 116.455 231.23 117.932H226.259ZM237.929 123.182C239.611 123.182 240.179 122.136 240.474 121.659H240.634V123H241.929V111.364H240.588V115.659H240.474C240.179 115.205 239.656 114.159 237.952 114.159C235.747 114.159 234.224 115.909 234.224 118.659C234.224 121.432 235.747 123.182 237.929 123.182ZM238.111 121.977C236.429 121.977 235.565 120.5 235.565 118.636C235.565 116.795 236.406 115.364 238.111 115.364C239.747 115.364 240.611 116.682 240.611 118.636C240.611 120.614 239.724 121.977 238.111 121.977ZM245.435 126.273C246.645 126.273 247.497 125.631 248.003 124.273L251.719 114.295L250.253 114.273L247.844 121.227H247.753L245.344 114.273H243.889L247.116 123.045L246.866 123.727C246.378 125.057 245.776 125.182 244.798 124.932L244.457 126.114C244.594 126.182 244.98 126.273 245.435 126.273Z" fill="white"/>
<path d="M299.295 111.364H297.886L294.977 113.295V114.727L297.818 112.841H297.886V123H299.295V111.364ZM306.347 111.205C303.983 111.176 302.46 112.955 302.46 115.091C302.46 117.341 304.119 118.955 306.119 118.955C307.324 118.955 308.347 118.364 308.983 117.409H309.074C309.074 120.273 307.96 121.909 306.165 121.909C304.938 121.909 304.188 121.136 303.938 120.068H302.551C302.824 121.909 304.21 123.159 306.165 123.159C308.778 123.159 310.392 120.841 310.392 116.705C310.392 112.432 308.256 111.227 306.347 111.205ZM306.347 112.455C307.801 112.455 308.869 113.705 308.869 115.068C308.869 116.455 307.733 117.705 306.301 117.705C304.869 117.705 303.824 116.545 303.824 115.091C303.824 113.636 304.915 112.455 306.347 112.455ZM316.354 123.159C318.678 123.159 320.297 121.801 320.308 119.909C320.297 118.438 319.314 117.188 318.058 116.955V116.886C319.149 116.602 319.865 115.534 319.876 114.295C319.865 112.523 318.376 111.205 316.354 111.205C314.308 111.205 312.82 112.523 312.831 114.295C312.82 115.534 313.536 116.602 314.649 116.886V116.955C313.371 117.188 312.388 118.438 312.399 119.909C312.388 121.801 314.007 123.159 316.354 123.159ZM316.354 121.909C314.757 121.909 313.774 121.091 313.786 119.841C313.774 118.528 314.859 117.591 316.354 117.591C317.825 117.591 318.911 118.528 318.922 119.841C318.911 121.091 317.928 121.909 316.354 121.909ZM316.354 116.386C315.081 116.386 314.183 115.591 314.195 114.386C314.183 113.205 315.047 112.432 316.354 112.432C317.638 112.432 318.501 113.205 318.513 114.386C318.501 115.591 317.604 116.386 316.354 116.386ZM326.349 123.159C328.702 123.188 330.236 121.415 330.236 119.25C330.236 117 328.571 115.386 326.577 115.386C325.378 115.386 324.349 115.972 323.713 116.932H323.622C323.628 114.097 324.73 112.455 326.531 112.455C327.759 112.455 328.497 113.227 328.759 114.273H330.145C329.861 112.466 328.486 111.205 326.531 111.205C323.912 111.205 322.304 113.523 322.304 117.636C322.304 121.938 324.44 123.136 326.349 123.159ZM326.349 121.909C324.889 121.909 323.821 120.665 323.827 119.273C323.832 117.881 324.952 116.636 326.395 116.636C327.821 116.636 328.872 117.807 328.872 119.25C328.872 120.727 327.776 121.909 326.349 121.909Z" fill="white"/>
<path d="M26.8864 156L28.0568 152.705H32.7614L33.9318 156H35.4091L31.1364 144.364H29.6818L25.4091 156H26.8864ZM28.5 151.455L30.3636 146.205H30.4545L32.3182 151.455H28.5ZM37.0398 156H38.3807V150.545C38.3807 149.267 39.3125 148.364 40.358 148.364C41.375 148.364 42.0852 149.028 42.0852 150.023V156H43.4489V150.318C43.4489 149.193 44.1534 148.364 45.3807 148.364C46.3352 148.364 47.1534 148.869 47.1534 150.159V156H48.4943V150.159C48.4943 148.108 47.392 147.159 45.8352 147.159C44.5852 147.159 43.6705 147.733 43.2216 148.636H43.1307C42.6989 147.705 41.9375 147.159 40.7898 147.159C39.6534 147.159 38.8125 147.705 38.4489 148.636H38.3352V147.273H37.0398V156ZM54.6051 156.182C56.3778 156.182 57.6733 155.295 58.0824 153.977L56.7869 153.614C56.446 154.523 55.6562 154.977 54.6051 154.977C53.0312 154.977 51.946 153.96 51.8835 152.091H58.2188V151.523C58.2188 148.273 56.2869 147.159 54.4688 147.159C52.1051 147.159 50.5369 149.023 50.5369 151.705C50.5369 154.386 52.0824 156.182 54.6051 156.182ZM51.8835 150.932C51.9744 149.574 52.9347 148.364 54.4688 148.364C55.9233 148.364 56.8551 149.455 56.8551 150.932H51.8835ZM60.2585 156H61.5994V150.477C61.5994 149.295 62.5312 148.432 63.804 148.432C64.1619 148.432 64.5312 148.5 64.6222 148.523V147.159C64.4688 147.148 64.1165 147.136 63.9176 147.136C62.8722 147.136 61.9631 147.727 61.6449 148.591H61.554V147.273H60.2585V156ZM66.2116 156H67.5526V147.273H66.2116V156ZM66.8935 145.818C67.4162 145.818 67.848 145.409 67.848 144.909C67.848 144.409 67.4162 144 66.8935 144C66.3707 144 65.9389 144.409 65.9389 144.909C65.9389 145.409 66.3707 145.818 66.8935 145.818ZM73.554 156.182C75.4858 156.182 76.7585 155 76.9858 153.455H75.6449C75.3949 154.409 74.5994 154.977 73.554 154.977C71.9631 154.977 70.9403 153.659 70.9403 151.636C70.9403 149.659 71.9858 148.364 73.554 148.364C74.7358 148.364 75.4403 149.091 75.6449 149.886H76.9858C76.7585 148.25 75.3722 147.159 73.5312 147.159C71.1676 147.159 69.5994 149.023 69.5994 151.682C69.5994 154.295 71.0994 156.182 73.554 156.182ZM81.5142 156.205C83.0369 156.205 83.8324 155.386 84.1051 154.818H84.1733V156H85.5142V150.25C85.5142 147.477 83.4006 147.159 82.2869 147.159C80.9688 147.159 79.4688 147.614 78.7869 149.205L80.0597 149.659C80.3551 149.023 81.054 148.341 82.3324 148.341C83.5653 148.341 84.1733 148.994 84.1733 150.114V150.159C84.1733 150.807 83.5142 150.75 81.9233 150.955C80.304 151.165 78.5369 151.523 78.5369 153.523C78.5369 155.227 79.8551 156.205 81.5142 156.205ZM81.7188 155C80.6506 155 79.8778 154.523 79.8778 153.591C79.8778 152.568 80.8097 152.25 81.8551 152.114C82.4233 152.045 83.946 151.886 84.1733 151.614V152.841C84.1733 153.932 83.3097 155 81.7188 155ZM89.3026 150.75C89.3026 149.227 90.2457 148.364 91.5298 148.364C92.7741 148.364 93.5298 149.176 93.5298 150.545V156H94.8707V150.455C94.8707 148.227 93.6832 147.159 91.9162 147.159C90.598 147.159 89.7798 147.75 89.3707 148.636H89.2571V147.273H87.9616V156H89.3026V150.75ZM109.957 148H111.412C110.98 145.75 109.094 144.205 106.639 144.205C103.656 144.205 101.548 146.5 101.548 150.182C101.548 153.864 103.639 156.159 106.73 156.159C109.503 156.159 111.48 154.312 111.48 151.432V150.182H107.048V151.432H110.116C110.077 153.523 108.702 154.841 106.73 154.841C104.571 154.841 102.912 153.205 102.912 150.182C102.912 147.159 104.571 145.523 106.639 145.523C108.321 145.523 109.463 146.472 109.957 148ZM113.712 156H115.053V150.477C115.053 149.295 115.984 148.432 117.257 148.432C117.615 148.432 117.984 148.5 118.075 148.523V147.159C117.922 147.148 117.57 147.136 117.371 147.136C116.325 147.136 115.416 147.727 115.098 148.591H115.007V147.273H113.712V156ZM122.233 156.205C123.756 156.205 124.551 155.386 124.824 154.818H124.892V156H126.233V150.25C126.233 147.477 124.119 147.159 123.006 147.159C121.688 147.159 120.188 147.614 119.506 149.205L120.778 149.659C121.074 149.023 121.773 148.341 123.051 148.341C124.284 148.341 124.892 148.994 124.892 150.114V150.159C124.892 150.807 124.233 150.75 122.642 150.955C121.023 151.165 119.256 151.523 119.256 153.523C119.256 155.227 120.574 156.205 122.233 156.205ZM122.438 155C121.369 155 120.597 154.523 120.597 153.591C120.597 152.568 121.528 152.25 122.574 152.114C123.142 152.045 124.665 151.886 124.892 151.614V152.841C124.892 153.932 124.028 155 122.438 155ZM132.567 147.273H130.612V146.386C130.612 145.523 130.976 145.068 131.862 145.068C132.249 145.068 132.476 145.159 132.612 145.205L132.999 144.045C132.794 143.955 132.385 143.818 131.726 143.818C130.476 143.818 129.271 144.568 129.271 146.068V147.273H127.862V148.409H129.271V156H130.612V148.409H132.567V147.273ZM138.332 147.273H136.378V146.386C136.378 145.523 136.741 145.068 137.628 145.068C138.014 145.068 138.241 145.159 138.378 145.205L138.764 144.045C138.56 143.955 138.151 143.818 137.491 143.818C136.241 143.818 135.037 144.568 135.037 146.068V147.273H133.628V148.409H135.037V156H136.378V148.409H138.332V147.273ZM140.212 156H141.553V147.273H140.212V156ZM140.893 145.818C141.416 145.818 141.848 145.409 141.848 144.909C141.848 144.409 141.416 144 140.893 144C140.371 144 139.939 144.409 139.939 144.909C139.939 145.409 140.371 145.818 140.893 145.818ZM147.804 147.273H145.94V145.182H144.599V147.273H143.281V148.409H144.599V153.864C144.599 155.386 145.827 156.114 146.963 156.114C147.463 156.114 147.781 156.023 147.963 155.955L147.69 154.75C147.577 154.773 147.395 154.818 147.099 154.818C146.509 154.818 145.94 154.636 145.94 153.5V148.409H147.804V147.273ZM149.821 156H151.162V147.273H149.821V156ZM150.503 145.818C151.026 145.818 151.457 145.409 151.457 144.909C151.457 144.409 151.026 144 150.503 144C149.98 144 149.548 144.409 149.548 144.909C149.548 145.409 149.98 145.818 150.503 145.818Z" fill="white"/>
<path d="M199.773 148C199.341 145.614 197.432 144.205 195.091 144.205C192.114 144.205 189.955 146.5 189.955 150.182C189.955 153.864 192.114 156.159 195.091 156.159C197.432 156.159 199.341 154.75 199.773 152.364H198.364C198.023 153.977 196.636 154.841 195.091 154.841C192.977 154.841 191.318 153.205 191.318 150.182C191.318 147.159 192.977 145.523 195.091 145.523C196.636 145.523 198.023 146.386 198.364 148H199.773ZM205.413 156.182C207.777 156.182 209.368 154.386 209.368 151.682C209.368 148.955 207.777 147.159 205.413 147.159C203.05 147.159 201.459 148.955 201.459 151.682C201.459 154.386 203.05 156.182 205.413 156.182ZM205.413 154.977C203.618 154.977 202.8 153.432 202.8 151.682C202.8 149.932 203.618 148.364 205.413 148.364C207.209 148.364 208.027 149.932 208.027 151.682C208.027 153.432 207.209 154.977 205.413 154.977ZM211.415 156H212.756V150.545C212.756 149.267 213.688 148.364 214.733 148.364C215.75 148.364 216.46 149.028 216.46 150.023V156H217.824V150.318C217.824 149.193 218.528 148.364 219.756 148.364C220.71 148.364 221.528 148.869 221.528 150.159V156H222.869V150.159C222.869 148.108 221.767 147.159 220.21 147.159C218.96 147.159 218.045 147.733 217.597 148.636H217.506C217.074 147.705 216.312 147.159 215.165 147.159C214.028 147.159 213.188 147.705 212.824 148.636H212.71V147.273H211.415V156ZM228.98 156.182C230.753 156.182 232.048 155.295 232.457 153.977L231.162 153.614C230.821 154.523 230.031 154.977 228.98 154.977C227.406 154.977 226.321 153.96 226.259 152.091H232.594V151.523C232.594 148.273 230.662 147.159 228.844 147.159C226.48 147.159 224.912 149.023 224.912 151.705C224.912 154.386 226.457 156.182 228.98 156.182ZM226.259 150.932C226.349 149.574 227.31 148.364 228.844 148.364C230.298 148.364 231.23 149.455 231.23 150.932H226.259ZM237.929 156.182C239.611 156.182 240.179 155.136 240.474 154.659H240.634V156H241.929V144.364H240.588V148.659H240.474C240.179 148.205 239.656 147.159 237.952 147.159C235.747 147.159 234.224 148.909 234.224 151.659C234.224 154.432 235.747 156.182 237.929 156.182ZM238.111 154.977C236.429 154.977 235.565 153.5 235.565 151.636C235.565 149.795 236.406 148.364 238.111 148.364C239.747 148.364 240.611 149.682 240.611 151.636C240.611 153.614 239.724 154.977 238.111 154.977ZM245.435 159.273C246.645 159.273 247.497 158.631 248.003 157.273L251.719 147.295L250.253 147.273L247.844 154.227H247.753L245.344 147.273H243.889L247.116 156.045L246.866 156.727C246.378 158.057 245.776 158.182 244.798 157.932L244.457 159.114C244.594 159.182 244.98 159.273 245.435 159.273Z" fill="white"/>
<path d="M299.295 144.364H297.886L294.977 146.295V147.727L297.818 145.841H297.886V156H299.295V144.364ZM306.347 144.205C303.983 144.176 302.46 145.955 302.46 148.091C302.46 150.341 304.119 151.955 306.119 151.955C307.324 151.955 308.347 151.364 308.983 150.409H309.074C309.074 153.273 307.96 154.909 306.165 154.909C304.938 154.909 304.188 154.136 303.938 153.068H302.551C302.824 154.909 304.21 156.159 306.165 156.159C308.778 156.159 310.392 153.841 310.392 149.705C310.392 145.432 308.256 144.227 306.347 144.205ZM306.347 145.455C307.801 145.455 308.869 146.705 308.869 148.068C308.869 149.455 307.733 150.705 306.301 150.705C304.869 150.705 303.824 149.545 303.824 148.091C303.824 146.636 304.915 145.455 306.347 145.455ZM312.678 156H314.155L319.337 145.682V144.364H311.882V145.614H317.882V145.705L312.678 156ZM325.121 156.159C327.376 156.159 329.053 154.744 329.053 152.841C329.053 151.364 328.178 150.29 326.712 150.045V149.955C327.888 149.597 328.621 148.631 328.621 147.318C328.621 145.67 327.32 144.205 325.166 144.205C323.155 144.205 321.484 145.443 321.416 147.273H322.78C322.831 146.114 323.933 145.432 325.143 145.432C326.428 145.432 327.257 146.21 327.257 147.386C327.257 148.614 326.297 149.409 324.916 149.409H323.984V150.659H324.916C326.683 150.659 327.666 151.557 327.666 152.841C327.666 154.074 326.592 154.909 325.098 154.909C323.751 154.909 322.683 154.216 322.598 153.091H321.166C321.251 154.92 322.865 156.159 325.121 156.159Z" fill="white"/>
<path d="M35.7727 181C35.3409 178.614 33.4318 177.205 31.0909 177.205C28.1136 177.205 25.9545 179.5 25.9545 183.182C25.9545 186.864 28.1136 189.159 31.0909 189.159C33.4318 189.159 35.3409 187.75 35.7727 185.364H34.3636C34.0227 186.977 32.6364 187.841 31.0909 187.841C28.9773 187.841 27.3182 186.205 27.3182 183.182C27.3182 180.159 28.9773 178.523 31.0909 178.523C32.6364 178.523 34.0227 179.386 34.3636 181H35.7727ZM40.4361 189.205C41.9588 189.205 42.7543 188.386 43.027 187.818H43.0952V189H44.4361V183.25C44.4361 180.477 42.3224 180.159 41.2088 180.159C39.8906 180.159 38.3906 180.614 37.7088 182.205L38.9815 182.659C39.277 182.023 39.9759 181.341 41.2543 181.341C42.4872 181.341 43.0952 181.994 43.0952 183.114V183.159C43.0952 183.807 42.4361 183.75 40.8452 183.955C39.2259 184.165 37.4588 184.523 37.4588 186.523C37.4588 188.227 38.777 189.205 40.4361 189.205ZM40.6406 188C39.5724 188 38.7997 187.523 38.7997 186.591C38.7997 185.568 39.7315 185.25 40.777 185.114C41.3452 185.045 42.8679 184.886 43.0952 184.614V185.841C43.0952 186.932 42.2315 188 40.6406 188ZM53.0653 182.227C52.6449 180.989 51.7017 180.159 49.9744 180.159C48.1335 180.159 46.7699 181.205 46.7699 182.682C46.7699 183.886 47.4858 184.693 49.0881 185.068L50.5426 185.409C51.4233 185.614 51.8381 186.034 51.8381 186.636C51.8381 187.386 51.0426 188 49.7926 188C48.696 188 48.0085 187.528 47.7699 186.591L46.4972 186.909C46.8097 188.392 48.0312 189.182 49.8153 189.182C51.8438 189.182 53.2244 188.074 53.2244 186.568C53.2244 185.352 52.4631 184.585 50.9062 184.205L49.6108 183.886C48.5767 183.631 48.1108 183.284 48.1108 182.614C48.1108 181.864 48.9062 181.318 49.9744 181.318C51.1449 181.318 51.6278 181.966 51.8608 182.568L53.0653 182.227ZM57.8111 189.205C59.3338 189.205 60.1293 188.386 60.402 187.818H60.4702V189H61.8111V183.25C61.8111 180.477 59.6974 180.159 58.5838 180.159C57.2656 180.159 55.7656 180.614 55.0838 182.205L56.3565 182.659C56.652 182.023 57.3509 181.341 58.6293 181.341C59.8622 181.341 60.4702 181.994 60.4702 183.114V183.159C60.4702 183.807 59.8111 183.75 58.2202 183.955C56.6009 184.165 54.8338 184.523 54.8338 186.523C54.8338 188.227 56.152 189.205 57.8111 189.205ZM58.0156 188C56.9474 188 56.1747 187.523 56.1747 186.591C56.1747 185.568 57.1065 185.25 58.152 185.114C58.7202 185.045 60.2429 184.886 60.4702 184.614V185.841C60.4702 186.932 59.6065 188 58.0156 188ZM64.4403 189H65.7358V187.659H65.8949C66.1903 188.136 66.7585 189.182 68.4403 189.182C70.6222 189.182 72.1449 187.432 72.1449 184.659C72.1449 181.909 70.6222 180.159 68.4176 180.159C66.7131 180.159 66.1903 181.205 65.8949 181.659H65.7812V177.364H64.4403V189ZM65.7585 184.636C65.7585 182.682 66.6222 181.364 68.2585 181.364C69.9631 181.364 70.804 182.795 70.804 184.636C70.804 186.5 69.9403 187.977 68.2585 187.977C66.6449 187.977 65.7585 186.614 65.7585 184.636ZM75.5369 177.364H74.196V189H75.5369V177.364ZM80.5611 189.205C82.0838 189.205 82.8793 188.386 83.152 187.818H83.2202V189H84.5611V183.25C84.5611 180.477 82.4474 180.159 81.3338 180.159C80.0156 180.159 78.5156 180.614 77.8338 182.205L79.1065 182.659C79.402 182.023 80.1009 181.341 81.3793 181.341C82.6122 181.341 83.2202 181.994 83.2202 183.114V183.159C83.2202 183.807 82.5611 183.75 80.9702 183.955C79.3509 184.165 77.5838 184.523 77.5838 186.523C77.5838 188.227 78.902 189.205 80.5611 189.205ZM80.7656 188C79.6974 188 78.9247 187.523 78.9247 186.591C78.9247 185.568 79.8565 185.25 80.902 185.114C81.4702 185.045 82.9929 184.886 83.2202 184.614V185.841C83.2202 186.932 82.3565 188 80.7656 188ZM88.3494 183.75C88.3494 182.227 89.2926 181.364 90.5767 181.364C91.821 181.364 92.5767 182.176 92.5767 183.545V189H93.9176V183.455C93.9176 181.227 92.7301 180.159 90.9631 180.159C89.6449 180.159 88.8267 180.75 88.4176 181.636H88.304V180.273H87.0085V189H88.3494V183.75ZM99.9134 189.182C101.845 189.182 103.118 188 103.345 186.455H102.004C101.754 187.409 100.959 187.977 99.9134 187.977C98.3224 187.977 97.2997 186.659 97.2997 184.636C97.2997 182.659 98.3452 181.364 99.9134 181.364C101.095 181.364 101.8 182.091 102.004 182.886H103.345C103.118 181.25 101.732 180.159 99.8906 180.159C97.527 180.159 95.9588 182.023 95.9588 184.682C95.9588 187.295 97.4588 189.182 99.9134 189.182ZM107.874 189.205C109.396 189.205 110.192 188.386 110.464 187.818H110.533V189H111.874V183.25C111.874 180.477 109.76 180.159 108.646 180.159C107.328 180.159 105.828 180.614 105.146 182.205L106.419 182.659C106.714 182.023 107.413 181.341 108.692 181.341C109.925 181.341 110.533 181.994 110.533 183.114V183.159C110.533 183.807 109.874 183.75 108.283 183.955C106.663 184.165 104.896 184.523 104.896 186.523C104.896 188.227 106.214 189.205 107.874 189.205ZM108.078 188C107.01 188 106.237 187.523 106.237 186.591C106.237 185.568 107.169 185.25 108.214 185.114C108.783 185.045 110.305 184.886 110.533 184.614V185.841C110.533 186.932 109.669 188 108.078 188Z" fill="white"/>
<path d="M199.773 181C199.341 178.614 197.432 177.205 195.091 177.205C192.114 177.205 189.955 179.5 189.955 183.182C189.955 186.864 192.114 189.159 195.091 189.159C197.432 189.159 199.341 187.75 199.773 185.364H198.364C198.023 186.977 196.636 187.841 195.091 187.841C192.977 187.841 191.318 186.205 191.318 183.182C191.318 180.159 192.977 178.523 195.091 178.523C196.636 178.523 198.023 179.386 198.364 181H199.773ZM201.868 189H203.209V183.477C203.209 182.295 204.141 181.432 205.413 181.432C205.771 181.432 206.141 181.5 206.232 181.523V180.159C206.078 180.148 205.726 180.136 205.527 180.136C204.482 180.136 203.572 180.727 203.254 181.591H203.163V180.273H201.868V189ZM207.821 189H209.162V180.273H207.821V189ZM208.503 178.818C209.026 178.818 209.457 178.409 209.457 177.909C209.457 177.409 209.026 177 208.503 177C207.98 177 207.548 177.409 207.548 177.909C207.548 178.409 207.98 178.818 208.503 178.818ZM211.618 189H212.959V183.545C212.959 182.267 213.891 181.364 214.936 181.364C215.953 181.364 216.663 182.028 216.663 183.023V189H218.027V183.318C218.027 182.193 218.732 181.364 219.959 181.364C220.913 181.364 221.732 181.869 221.732 183.159V189H223.072V183.159C223.072 181.108 221.97 180.159 220.413 180.159C219.163 180.159 218.249 180.733 217.8 181.636H217.709C217.277 180.705 216.516 180.159 215.368 180.159C214.232 180.159 213.391 180.705 213.027 181.636H212.913V180.273H211.618V189ZM229.183 189.182C230.956 189.182 232.251 188.295 232.661 186.977L231.365 186.614C231.024 187.523 230.234 187.977 229.183 187.977C227.609 187.977 226.524 186.96 226.462 185.091H232.797V184.523C232.797 181.273 230.865 180.159 229.047 180.159C226.683 180.159 225.115 182.023 225.115 184.705C225.115 187.386 226.661 189.182 229.183 189.182ZM226.462 183.932C226.553 182.574 227.513 181.364 229.047 181.364C230.501 181.364 231.433 182.455 231.433 183.932H226.462Z" fill="white"/>
<path d="M299.295 177.364H297.886L294.977 179.295V180.727L297.818 178.841H297.886V189H299.295V177.364ZM306.347 177.205C303.983 177.176 302.46 178.955 302.46 181.091C302.46 183.341 304.119 184.955 306.119 184.955C307.324 184.955 308.347 184.364 308.983 183.409H309.074C309.074 186.273 307.96 187.909 306.165 187.909C304.938 187.909 304.188 187.136 303.938 186.068H302.551C302.824 187.909 304.21 189.159 306.165 189.159C308.778 189.159 310.392 186.841 310.392 182.705C310.392 178.432 308.256 177.227 306.347 177.205ZM306.347 178.455C307.801 178.455 308.869 179.705 308.869 181.068C308.869 182.455 307.733 183.705 306.301 183.705C304.869 183.705 303.824 182.545 303.824 181.091C303.824 179.636 304.915 178.455 306.347 178.455ZM312.354 186.614H317.831V189H319.172V186.614H320.763V185.364H319.172V177.364H317.467L312.354 185.455V186.614ZM317.831 185.364H313.876V185.273L317.74 179.159H317.831V185.364ZM322.892 189H330.233V187.75H324.824V187.659L327.438 184.864C329.438 182.722 330.028 181.722 330.028 180.432C330.028 178.636 328.574 177.205 326.528 177.205C324.489 177.205 322.938 178.591 322.938 180.636H324.278C324.278 179.312 325.136 178.432 326.483 178.432C327.744 178.432 328.71 179.205 328.71 180.432C328.71 181.506 328.08 182.301 326.733 183.773L322.892 187.977V189Z" fill="white"/>
<path d="M26.4091 222H27.8182V217.75H30.3636C33.0739 217.75 34.2955 216.102 34.2955 214.045C34.2955 211.989 33.0739 210.364 30.3409 210.364H26.4091V222ZM27.8182 216.5V211.614H30.2955C32.1875 211.614 32.9091 212.648 32.9091 214.045C32.9091 215.443 32.1875 216.5 30.3182 216.5H27.8182ZM37.2472 225.273C38.4574 225.273 39.3097 224.631 39.8153 223.273L43.5312 213.295L42.0653 213.273L39.6562 220.227H39.5653L37.1562 213.273H35.7017L38.929 222.045L38.679 222.727C38.1903 224.057 37.5881 224.182 36.6108 223.932L36.2699 225.114C36.4062 225.182 36.7926 225.273 37.2472 225.273ZM51.4872 215.227C51.0668 213.989 50.1236 213.159 48.3963 213.159C46.5554 213.159 45.1918 214.205 45.1918 215.682C45.1918 216.886 45.9077 217.693 47.5099 218.068L48.9645 218.409C49.8452 218.614 50.2599 219.034 50.2599 219.636C50.2599 220.386 49.4645 221 48.2145 221C47.1179 221 46.4304 220.528 46.1918 219.591L44.919 219.909C45.2315 221.392 46.4531 222.182 48.2372 222.182C50.2656 222.182 51.6463 221.074 51.6463 219.568C51.6463 218.352 50.8849 217.585 49.3281 217.205L48.0327 216.886C46.9986 216.631 46.5327 216.284 46.5327 215.614C46.5327 214.864 47.3281 214.318 48.3963 214.318C49.5668 214.318 50.0497 214.966 50.2827 215.568L51.4872 215.227ZM57.2102 222.182C59.142 222.182 60.4148 221 60.642 219.455H59.3011C59.0511 220.409 58.2557 220.977 57.2102 220.977C55.6193 220.977 54.5966 219.659 54.5966 217.636C54.5966 215.659 55.642 214.364 57.2102 214.364C58.392 214.364 59.0966 215.091 59.3011 215.886H60.642C60.4148 214.25 59.0284 213.159 57.1875 213.159C54.8239 213.159 53.2557 215.023 53.2557 217.682C53.2557 220.295 54.7557 222.182 57.2102 222.182ZM63.9432 216.75C63.9432 215.227 64.9148 214.364 66.2386 214.364C67.5 214.364 68.2614 215.159 68.2614 216.545V222H69.6023V216.455C69.6023 214.21 68.4091 213.159 66.625 213.159C65.25 213.159 64.4659 213.733 64.0568 214.636H63.9432V210.364H62.6023V222H63.9432V216.75ZM75.6009 222.182C77.9645 222.182 79.5554 220.386 79.5554 217.682C79.5554 214.955 77.9645 213.159 75.6009 213.159C73.2372 213.159 71.6463 214.955 71.6463 217.682C71.6463 220.386 73.2372 222.182 75.6009 222.182ZM75.6009 220.977C73.8054 220.977 72.9872 219.432 72.9872 217.682C72.9872 215.932 73.8054 214.364 75.6009 214.364C77.3963 214.364 78.2145 215.932 78.2145 217.682C78.2145 219.432 77.3963 220.977 75.6009 220.977Z" fill="white"/>
<path d="M189.773 211.614H193.432V222H194.841V211.614H198.5V210.364H189.773V211.614ZM201.834 216.75C201.834 215.227 202.805 214.364 204.129 214.364C205.391 214.364 206.152 215.159 206.152 216.545V222H207.493V216.455C207.493 214.21 206.3 213.159 204.516 213.159C203.141 213.159 202.357 213.733 201.947 214.636H201.834V210.364H200.493V222H201.834V216.75ZM209.946 222H211.287V216.477C211.287 215.295 212.219 214.432 213.491 214.432C213.849 214.432 214.219 214.5 214.31 214.523V213.159C214.156 213.148 213.804 213.136 213.605 213.136C212.56 213.136 211.651 213.727 211.332 214.591H211.241V213.273H209.946V222ZM215.899 222H217.24V213.273H215.899V222ZM216.581 211.818C217.104 211.818 217.536 211.409 217.536 210.909C217.536 210.409 217.104 210 216.581 210C216.058 210 215.626 210.409 215.626 210.909C215.626 211.409 216.058 211.818 216.581 211.818ZM221.037 210.364H219.696V222H221.037V210.364ZM224.834 210.364H223.493V222H224.834V210.364ZM230.949 222.182C232.722 222.182 234.017 221.295 234.426 219.977L233.131 219.614C232.79 220.523 232 220.977 230.949 220.977C229.375 220.977 228.29 219.96 228.227 218.091H234.562V217.523C234.562 214.273 232.631 213.159 230.812 213.159C228.449 213.159 226.881 215.023 226.881 217.705C226.881 220.386 228.426 222.182 230.949 222.182ZM228.227 216.932C228.318 215.574 229.278 214.364 230.812 214.364C232.267 214.364 233.199 215.455 233.199 216.932H228.227ZM236.602 222H237.943V216.477C237.943 215.295 238.875 214.432 240.148 214.432C240.506 214.432 240.875 214.5 240.966 214.523V213.159C240.812 213.148 240.46 213.136 240.261 213.136C239.216 213.136 238.307 213.727 237.989 214.591H237.898V213.273H236.602V222Z" fill="white"/>
<path d="M299.295 210.364H297.886L294.977 212.295V213.727L297.818 211.841H297.886V222H299.295V210.364ZM306.347 210.205C303.983 210.176 302.46 211.955 302.46 214.091C302.46 216.341 304.119 217.955 306.119 217.955C307.324 217.955 308.347 217.364 308.983 216.409H309.074C309.074 219.273 307.96 220.909 306.165 220.909C304.938 220.909 304.188 220.136 303.938 219.068H302.551C302.824 220.909 304.21 222.159 306.165 222.159C308.778 222.159 310.392 219.841 310.392 215.705C310.392 211.432 308.256 210.227 306.347 210.205ZM306.347 211.455C307.801 211.455 308.869 212.705 308.869 214.068C308.869 215.455 307.733 216.705 306.301 216.705C304.869 216.705 303.824 215.545 303.824 214.091C303.824 212.636 304.915 211.455 306.347 211.455ZM316.49 222.159C318.842 222.188 320.376 220.415 320.376 218.25C320.376 216 318.712 214.386 316.717 214.386C315.518 214.386 314.49 214.972 313.854 215.932H313.763C313.768 213.097 314.871 211.455 316.672 211.455C317.899 211.455 318.638 212.227 318.899 213.273H320.286C320.001 211.466 318.626 210.205 316.672 210.205C314.053 210.205 312.445 212.523 312.445 216.636C312.445 220.938 314.581 222.136 316.49 222.159ZM316.49 220.909C315.03 220.909 313.962 219.665 313.967 218.273C313.973 216.881 315.092 215.636 316.536 215.636C317.962 215.636 319.013 216.807 319.013 218.25C319.013 219.727 317.916 220.909 316.49 220.909ZM326.406 222.159C328.974 222.159 330.452 219.983 330.452 216.182C330.452 212.409 328.952 210.205 326.406 210.205C323.861 210.205 322.361 212.409 322.361 216.182C322.361 219.983 323.838 222.159 326.406 222.159ZM326.406 220.909C324.713 220.909 323.724 219.21 323.724 216.182C323.724 213.159 324.724 211.432 326.406 211.432C328.088 211.432 329.088 213.159 329.088 216.182C329.088 219.21 328.099 220.909 326.406 220.909Z" fill="white"/>
<path d="M25.7727 244.614H29.4318V255H30.8409V244.614H34.5V243.364H25.7727V244.614ZM37.8338 249.75C37.8338 248.227 38.8054 247.364 40.1293 247.364C41.3906 247.364 42.152 248.159 42.152 249.545V255H43.4929V249.455C43.4929 247.21 42.2997 246.159 40.5156 246.159C39.1406 246.159 38.3565 246.733 37.9474 247.636H37.8338V243.364H36.4929V255H37.8338V249.75ZM49.6051 255.182C51.3778 255.182 52.6733 254.295 53.0824 252.977L51.7869 252.614C51.446 253.523 50.6562 253.977 49.6051 253.977C48.0312 253.977 46.946 252.96 46.8835 251.091H53.2188V250.523C53.2188 247.273 51.2869 246.159 49.4688 246.159C47.1051 246.159 45.5369 248.023 45.5369 250.705C45.5369 253.386 47.0824 255.182 49.6051 255.182ZM46.8835 249.932C46.9744 248.574 47.9347 247.364 49.4688 247.364C50.9233 247.364 51.8551 248.455 51.8551 249.932H46.8835ZM67.8949 247H69.3494C68.9176 244.75 67.0312 243.205 64.5767 243.205C61.5938 243.205 59.4858 245.5 59.4858 249.182C59.4858 252.864 61.5767 255.159 64.6676 255.159C67.4403 255.159 69.4176 253.312 69.4176 250.432V249.182H64.9858V250.432H68.054C68.0142 252.523 66.6392 253.841 64.6676 253.841C62.5085 253.841 60.8494 252.205 60.8494 249.182C60.8494 246.159 62.5085 244.523 64.5767 244.523C66.2585 244.523 67.4006 245.472 67.8949 247ZM75.1946 255.182C77.5582 255.182 79.1491 253.386 79.1491 250.682C79.1491 247.955 77.5582 246.159 75.1946 246.159C72.831 246.159 71.2401 247.955 71.2401 250.682C71.2401 253.386 72.831 255.182 75.1946 255.182ZM75.1946 253.977C73.3991 253.977 72.581 252.432 72.581 250.682C72.581 248.932 73.3991 247.364 75.1946 247.364C76.9901 247.364 77.8082 248.932 77.8082 250.682C77.8082 252.432 76.9901 253.977 75.1946 253.977ZM84.4915 255.182C86.1733 255.182 86.7415 254.136 87.0369 253.659H87.196V255H88.4915V243.364H87.1506V247.659H87.0369C86.7415 247.205 86.2188 246.159 84.5142 246.159C82.3097 246.159 80.7869 247.909 80.7869 250.659C80.7869 253.432 82.3097 255.182 84.4915 255.182ZM84.6733 253.977C82.9915 253.977 82.1278 252.5 82.1278 250.636C82.1278 248.795 82.9688 247.364 84.6733 247.364C86.3097 247.364 87.1733 248.682 87.1733 250.636C87.1733 252.614 86.2869 253.977 84.6733 253.977ZM95.0199 246.273H93.0653V245.386C93.0653 244.523 93.429 244.068 94.3153 244.068C94.7017 244.068 94.929 244.159 95.0653 244.205L95.4517 243.045C95.2472 242.955 94.8381 242.818 94.179 242.818C92.929 242.818 91.7244 243.568 91.7244 245.068V246.273H90.3153V247.409H91.7244V255H93.0653V247.409H95.0199V246.273ZM99.2173 255.205C100.74 255.205 101.536 254.386 101.808 253.818H101.876V255H103.217V249.25C103.217 246.477 101.104 246.159 99.9901 246.159C98.6719 246.159 97.1719 246.614 96.4901 248.205L97.7628 248.659C98.0582 248.023 98.7571 247.341 100.036 247.341C101.268 247.341 101.876 247.994 101.876 249.114V249.159C101.876 249.807 101.217 249.75 99.6264 249.955C98.0071 250.165 96.2401 250.523 96.2401 252.523C96.2401 254.227 97.5582 255.205 99.2173 255.205ZM99.4219 254C98.3537 254 97.581 253.523 97.581 252.591C97.581 251.568 98.5128 251.25 99.5582 251.114C100.126 251.045 101.649 250.886 101.876 250.614V251.841C101.876 252.932 101.013 254 99.4219 254ZM109.46 246.273H107.597V244.182H106.256V246.273H104.938V247.409H106.256V252.864C106.256 254.386 107.483 255.114 108.619 255.114C109.119 255.114 109.438 255.023 109.619 254.955L109.347 253.75C109.233 253.773 109.051 253.818 108.756 253.818C108.165 253.818 107.597 253.636 107.597 252.5V247.409H109.46V246.273ZM113.006 249.75C113.006 248.227 113.977 247.364 115.301 247.364C116.562 247.364 117.324 248.159 117.324 249.545V255H118.665V249.455C118.665 247.21 117.472 246.159 115.688 246.159C114.312 246.159 113.528 246.733 113.119 247.636H113.006V243.364H111.665V255H113.006V249.75ZM124.777 255.182C126.55 255.182 127.845 254.295 128.254 252.977L126.959 252.614C126.618 253.523 125.828 253.977 124.777 253.977C123.203 253.977 122.118 252.96 122.055 251.091H128.391V250.523C128.391 247.273 126.459 246.159 124.641 246.159C122.277 246.159 120.709 248.023 120.709 250.705C120.709 253.386 122.254 255.182 124.777 255.182ZM122.055 249.932C122.146 248.574 123.107 247.364 124.641 247.364C126.095 247.364 127.027 248.455 127.027 249.932H122.055ZM130.43 255H131.771V249.477C131.771 248.295 132.703 247.432 133.976 247.432C134.334 247.432 134.703 247.5 134.794 247.523V246.159C134.641 246.148 134.288 246.136 134.089 246.136C133.044 246.136 132.135 246.727 131.817 247.591H131.726V246.273H130.43V255Z" fill="white"/>
<path d="M199.773 247C199.341 244.614 197.432 243.205 195.091 243.205C192.114 243.205 189.955 245.5 189.955 249.182C189.955 252.864 192.114 255.159 195.091 255.159C197.432 255.159 199.341 253.75 199.773 251.364H198.364C198.023 252.977 196.636 253.841 195.091 253.841C192.977 253.841 191.318 252.205 191.318 249.182C191.318 246.159 192.977 244.523 195.091 244.523C196.636 244.523 198.023 245.386 198.364 247H199.773ZM201.868 255H203.209V249.477C203.209 248.295 204.141 247.432 205.413 247.432C205.771 247.432 206.141 247.5 206.232 247.523V246.159C206.078 246.148 205.726 246.136 205.527 246.136C204.482 246.136 203.572 246.727 203.254 247.591H203.163V246.273H201.868V255ZM207.821 255H209.162V246.273H207.821V255ZM208.503 244.818C209.026 244.818 209.457 244.409 209.457 243.909C209.457 243.409 209.026 243 208.503 243C207.98 243 207.548 243.409 207.548 243.909C207.548 244.409 207.98 244.818 208.503 244.818ZM211.618 255H212.959V249.545C212.959 248.267 213.891 247.364 214.936 247.364C215.953 247.364 216.663 248.028 216.663 249.023V255H218.027V249.318C218.027 248.193 218.732 247.364 219.959 247.364C220.913 247.364 221.732 247.869 221.732 249.159V255H223.072V249.159C223.072 247.108 221.97 246.159 220.413 246.159C219.163 246.159 218.249 246.733 217.8 247.636H217.709C217.277 246.705 216.516 246.159 215.368 246.159C214.232 246.159 213.391 246.705 213.027 247.636H212.913V246.273H211.618V255ZM229.183 255.182C230.956 255.182 232.251 254.295 232.661 252.977L231.365 252.614C231.024 253.523 230.234 253.977 229.183 253.977C227.609 253.977 226.524 252.96 226.462 251.091H232.797V250.523C232.797 247.273 230.865 246.159 229.047 246.159C226.683 246.159 225.115 248.023 225.115 250.705C225.115 253.386 226.661 255.182 229.183 255.182ZM226.462 249.932C226.553 248.574 227.513 247.364 229.047 247.364C230.501 247.364 231.433 248.455 231.433 249.932H226.462Z" fill="white"/>
<path d="M299.295 243.364H297.886L294.977 245.295V246.727L297.818 244.841H297.886V255H299.295V243.364ZM306.347 243.205C303.983 243.176 302.46 244.955 302.46 247.091C302.46 249.341 304.119 250.955 306.119 250.955C307.324 250.955 308.347 250.364 308.983 249.409H309.074C309.074 252.273 307.96 253.909 306.165 253.909C304.938 253.909 304.188 253.136 303.938 252.068H302.551C302.824 253.909 304.21 255.159 306.165 255.159C308.778 255.159 310.392 252.841 310.392 248.705C310.392 244.432 308.256 243.227 306.347 243.205ZM306.347 244.455C307.801 244.455 308.869 245.705 308.869 247.068C308.869 248.455 307.733 249.705 306.301 249.705C304.869 249.705 303.824 248.545 303.824 247.091C303.824 245.636 304.915 244.455 306.347 244.455ZM312.678 255H314.155L319.337 244.682V243.364H311.882V244.614H317.882V244.705L312.678 255ZM321.455 255H328.795V253.75H323.386V253.659L326 250.864C328 248.722 328.591 247.722 328.591 246.432C328.591 244.636 327.136 243.205 325.091 243.205C323.051 243.205 321.5 244.591 321.5 246.636H322.841C322.841 245.312 323.699 244.432 325.045 244.432C326.307 244.432 327.273 245.205 327.273 246.432C327.273 247.506 326.642 248.301 325.295 249.773L321.455 253.977V255Z" fill="white"/>
<line opacity="0.4" x1="25" y1="54.5" x2="330" y2="54.5" stroke="white" stroke-dasharray="5 5"/>
<defs>
<filter id="filter0_b_5_10994" x="-20" y="-20" width="401" height="320" filterUnits="userSpaceOnUse" color-interpolation-filters="sRGB">
<feFlood flood-opacity="0" result="BackgroundImageFix"/>
<feGaussianBlur in="BackgroundImageFix" stdDeviation="10"/>
<feComposite in2="SourceAlpha" operator="in" result="effect1_backgroundBlur_5_10994"/>
<feBlend mode="normal" in="SourceGraphic" in2="effect1_backgroundBlur_5_10994" result="shape"/>
</filter>
<filter id="filter1_f_5_10994" x="78" y="-10" width="518" height="518" filterUnits="userSpaceOnUse" color-interpolation-filters="sRGB">
<feFlood flood-opacity="0" result="BackgroundImageFix"/>
<feBlend mode="normal" in="SourceGraphic" in2="BackgroundImageFix" result="shape"/>
<feGaussianBlur stdDeviation="82" result="effect1_foregroundBlur_5_10994"/>
</filter>
</defs>
</svg>
