<svg width="160" height="20" viewBox="0 0 160 20" fill="none" xmlns="http://www.w3.org/2000/svg">
<g filter="url(#filter0_d_5_437)">
<path d="M7.264 12V2H4.176V0.079999H12.496V2H9.456V12H7.264ZM16.8239 12V0.079999H21.2559C22.0665 0.079999 22.7812 0.229333 23.3999 0.528C24.0292 0.815999 24.5199 1.24267 24.8719 1.808C25.2239 2.36267 25.3999 3.04 25.3999 3.84C25.3999 4.66133 25.2025 5.36 24.8079 5.936C24.4239 6.512 23.9012 6.93867 23.2399 7.216L25.9759 12H23.5119L20.5839 6.768L21.9919 7.6H18.9999V12H16.8239ZM18.9999 5.68H21.2879C21.6825 5.68 22.0239 5.60533 22.3119 5.456C22.5999 5.296 22.8239 5.07733 22.9839 4.8C23.1439 4.52267 23.2239 4.20267 23.2239 3.84C23.2239 3.46667 23.1439 3.14667 22.9839 2.88C22.8239 2.60267 22.5999 2.38933 22.3119 2.24C22.0239 2.08 21.6825 2 21.2879 2H18.9999V5.68ZM29.426 12L33.538 0.079999H36.354L40.466 12H38.098L37.25 9.44H32.642L31.778 12H29.426ZM33.266 7.52H36.626L34.642 1.584H35.25L33.266 7.52ZM47.2579 12L43.0979 0.079999H45.4659L48.7299 9.952H48.2659L51.5299 0.079999H53.8979L49.7539 12H47.2579ZM58.2301 12V0.079999H66.1501V2H60.4061V5.056H65.8301V6.976H60.4061V10.08H66.1501V12H58.2301ZM70.7458 12V0.079999H72.9218V10.08H78.0258V12H70.7458ZM88.277 12V0.079999H90.357L94.821 6.144H93.829L98.197 0.079999H100.277V12H98.085V2.56L98.933 2.768L94.405 8.8H94.149L89.733 2.768L90.453 2.56V12H88.277ZM104.582 12L108.694 0.079999H111.51L115.622 12H113.254L112.406 9.44H107.798L106.934 12H104.582ZM108.422 7.52H111.782L109.798 1.584H110.406L108.422 7.52ZM119.949 12V0.079999H122.125V6.288L121.533 6.08L126.605 0.079999H129.341L124.589 5.712L124.717 4.176L129.485 12H126.925L123.725 6.752L122.125 8.656V12H119.949ZM133.808 12V0.079999H141.728V2H135.984V5.056H141.408V6.976H135.984V10.08H141.728V12H133.808ZM146.324 12V0.079999H150.756C151.567 0.079999 152.281 0.229333 152.9 0.528C153.529 0.815999 154.02 1.24267 154.372 1.808C154.724 2.36267 154.9 3.04 154.9 3.84C154.9 4.66133 154.703 5.36 154.308 5.936C153.924 6.512 153.401 6.93867 152.74 7.216L155.476 12H153.012L150.084 6.768L151.492 7.6H148.5V12H146.324ZM148.5 5.68H150.788C151.183 5.68 151.524 5.60533 151.812 5.456C152.1 5.296 152.324 5.07733 152.484 4.8C152.644 4.52267 152.724 4.20267 152.724 3.84C152.724 3.46667 152.644 3.14667 152.484 2.88C152.324 2.60267 152.1 2.38933 151.812 2.24C151.524 2.08 151.183 2 150.788 2H148.5V5.68Z" fill="#44B0FF"/>
</g>
<defs>
<filter id="filter0_d_5_437" x="0.176025" y="0.0800781" width="159.3" height="19.9199" filterUnits="userSpaceOnUse" color-interpolation-filters="sRGB">
<feFlood flood-opacity="0" result="BackgroundImageFix"/>
<feColorMatrix in="SourceAlpha" type="matrix" values="0 0 0 0 0 0 0 0 0 0 0 0 0 0 0 0 0 0 127 0" result="hardAlpha"/>
<feOffset dy="4"/>
<feGaussianBlur stdDeviation="2"/>
<feComposite in2="hardAlpha" operator="out"/>
<feColorMatrix type="matrix" values="0 0 0 0 0 0 0 0 0 0 0 0 0 0 0 0 0 0 0.25 0"/>
<feBlend mode="normal" in2="BackgroundImageFix" result="effect1_dropShadow_5_437"/>
<feBlend mode="normal" in="SourceGraphic" in2="effect1_dropShadow_5_437" result="shape"/>
</filter>
</defs>
</svg>
